<?xml version="1.0" encoding="UTF-8"?>
<svg version="1.1" xmlns="http://www.w3.org/2000/svg" width="512" height="512">
<path d="M0 0 C2.0625 0.4375 2.0625 0.4375 4 1 C4 1.66 4 2.32 4 3 C4.66 3 5.32 3 6 3 C6.27263672 3.92232422 6.27263672 3.92232422 6.55078125 4.86328125 C6.80214844 5.67152344 7.05351562 6.47976562 7.3125 7.3125 C7.55613281 8.11300781 7.79976562 8.91351563 8.05078125 9.73828125 C9.05138287 12.1224308 10.12531674 13.26680227 12 15 C12.433125 16.051875 12.433125 16.051875 12.875 17.125 C13.84569494 19.18910383 13.84569494 19.18910383 16.0625 19.75 C21.69562329 20.22941475 27.16249929 20.12085643 32.78125 19.5 C40.30659551 18.79713147 47.82545342 18.84915217 55.375 18.875 C56.49302505 18.87632935 56.49302505 18.87632935 57.63363647 18.87768555 C68.47843165 18.89280004 79.28547948 19.13347221 90.11328125 19.78125 C93.09064691 19.94882033 96.0203811 20.04757874 99 20 C99.309375 19.21625 99.61875 18.4325 99.9375 17.625 C101 15 101 15 102 13 C102.66 13 103.32 13 104 13 C104.061875 11.96875 104.12375 10.9375 104.1875 9.875 C105.22056946 4.94805336 106.21397505 3.2921956 110 0 C113.5625 0.0625 113.5625 0.0625 117 1 C118.2065625 1.2784375 118.2065625 1.2784375 119.4375 1.5625 C119.953125 1.706875 120.46875 1.85125 121 2 C121 2.66 121 3.32 121 4 C122.32 3.67 123.64 3.34 125 3 C125 3.66 125 4.32 125 5 C130.29368312 5.68621818 135.58017115 6.25772382 140.8984375 6.71875 C143 7 143 7 145 8 C145 8.66 145 9.32 145 10 C145.61875 9.814375 146.2375 9.62875 146.875 9.4375 C149 9 149 9 151 10 C151 10.66 151 11.32 151 12 C151.71285156 12.12117188 152.42570312 12.24234375 153.16015625 12.3671875 C158.55234841 13.31063969 163.77235672 14.37362209 169 16 C169 16.66 169 17.32 169 18 C169.58007812 18.12117188 170.16015625 18.24234375 170.7578125 18.3671875 C181.22543353 20.61271676 181.22543353 20.61271676 186 23 C186 23.66 186 24.32 186 25 C186.58394531 25.25007813 187.16789062 25.50015625 187.76953125 25.7578125 C190.29692051 27.16536028 191.79303954 28.69698689 193.6875 30.875 C194.28949219 31.55304688 194.89148438 32.23109375 195.51171875 32.9296875 C197.03095867 35.04306587 197.41274281 36.51188403 198 39 C198.804375 39.763125 199.60875 40.52625 200.4375 41.3125 C203.43802816 44.45939539 204.06786032 46.80537144 205 51 C205.33 51.99 205.66 52.98 206 54 C206.99 54.33 207.98 54.66 209 55 C209.28875 56.051875 209.5775 57.10375 209.875 58.1875 C210.75256737 62.11207951 210.75256737 62.11207951 213.5 64.9375 C216.1825227 68.2235903 216.6769297 70.11996012 217.47265625 74.12890625 C217.94234778 76.26058606 217.94234778 76.26058606 220 78.5 C223.18876929 82.48596161 223.65909485 86.99718227 224.5 91.9375 C224.665 92.618125 224.83 93.29875 225 94 C225.66 94.33 226.32 94.66 227 95 C228.92244154 98.9986784 230.32307936 102.60001583 231 107 C231.185625 108.093125 231.37125 109.18625 231.5625 110.3125 C231.706875 111.199375 231.85125 112.08625 232 113 C232.66 113 233.32 113 234 113 C235.85982272 119.44738542 237.16100831 125.16954632 237.62109375 131.85546875 C237.74613281 132.56316406 237.87117188 133.27085937 238 134 C238.66 134.33 239.32 134.66 240 135 C239.67 135.99 239.34 136.98 239 138 C239.66 138 240.32 138 241 138 C241.144375 138.9075 241.28875 139.815 241.4375 140.75 C241.91404035 143.79015036 241.91404035 143.79015036 242.50390625 145.890625 C243.06331685 148.26922124 243.29707741 150.56492896 243.5 153 C243.58121094 153.95519531 243.66242188 154.91039062 243.74609375 155.89453125 C243.87177734 157.43173828 243.87177734 157.43173828 244 159 C244.14115234 160.67642578 244.14115234 160.67642578 244.28515625 162.38671875 C244.52637651 165.25757959 244.76448052 168.12866675 245 171 C245.66 171 246.32 171 247 171 C247 173.64 247 176.28 247 179 C247.33 179 247.66 179 248 179 C248.125 186.625 248.125 186.625 247 190 C247.66 190 248.32 190 249 190 C249.02469669 196.06892601 249.04285842 202.13782283 249.05493164 208.20678711 C249.05996414 210.27189646 249.06679069 212.33700224 249.07543945 214.40209961 C249.08755236 217.36833578 249.09323911 220.33452489 249.09765625 223.30078125 C249.10281754 224.2258699 249.10797882 225.15095856 249.11329651 226.1040802 C249.11340981 227.39507881 249.11340981 227.39507881 249.11352539 228.7121582 C249.115746 229.46938675 249.11796661 230.2266153 249.12025452 231.00679016 C249 233 249 233 248 236 C247.93197033 237.72795352 247.91504355 239.45835365 247.9375 241.1875 C247.95103516 242.53908203 247.95103516 242.53908203 247.96484375 243.91796875 C247.97644531 244.60503906 247.98804688 245.29210937 248 246 C247.34 246.33 246.68 246.66 246 247 C245.67 247.99 245.34 248.98 245 250 C243.67321571 250.35851405 242.33855916 250.68831384 241 251 C239.11085463 252.39049996 239.11085463 252.39049996 237.375 254.0625 C234.20941176 257 234.20941176 257 232 257 C230.83314734 258.16685266 229.67976438 259.3480822 228.5625 260.5625 C226.35123094 262.59686754 223.8268231 263.05772563 221 264 C219.844123 264.96414385 218.72108614 265.96838952 217.625 267 C214.70823407 269.58587231 212.87099039 270.38879099 209 271 C207.2925002 272.28062485 205.62626404 273.61767557 204 275 C200.47223539 277.46943523 198.32148952 278.37041339 194 278 C193.67 278.66 193.34 279.32 193 280 C191.35544725 280.71949183 189.68076231 281.36971413 188 282 C186.45393411 282.6563999 184.91254468 283.323881 183.375 284 C182.61960937 284.33 181.86421875 284.66 181.0859375 285 C178.7789158 286.04591483 178.7789158 286.04591483 176 288 C173.9140625 288.59765625 173.9140625 288.59765625 171.625 289.0625 C170.83351563 289.22878906 170.04203125 289.39507812 169.2265625 289.56640625 C167.48943104 289.90468974 165.74568357 290.20905274 164 290.5 C163.34 290.665 162.68 290.83 162 291 C161.67 291.66 161.34 292.32 161 293 C156.09825932 296.10842092 152.61589298 296.29047722 147 296 C147 295.34 147 294.68 147 294 C146.01 293.67 145.02 293.34 144 293 C143.30341637 291.34561387 142.63903117 289.67745682 142 288 C140.50014391 286.33289654 140.50014391 286.33289654 139 285 C138.67 284.34 138.34 283.68 138 283 C137.484375 282.34 136.96875 281.68 136.4375 281 C135 279 135 279 135 277 C134.401875 276.443125 133.80375 275.88625 133.1875 275.3125 C130.50063661 272.47210156 129.44365239 269.60913097 128 266 C127.34 265.01 126.68 264.02 126 263 C126.0625 260.4375 126.0625 260.4375 127 258 C129.91153549 256.32366139 133.00759968 255.7625753 136.25 255 C137.4875 254.67 138.725 254.34 140 254 C140.33 253.34 140.66 252.68 141 252 C143.50163758 250.88816107 146.04751664 249.98302977 148.625 249.0625 C151.02247379 247.98994594 152.294063 246.96182755 154 245 C154.33 244.67 154.66 244.34 155 244 C149.0558452 242.60881483 144.52539622 243.30844433 139 246 C138.67 246.66 138.34 247.32 138 248 C134.91995925 249.54002038 131.84958759 250.26199984 128.5 250.9375 C125.65803519 251.52645981 123.99459887 252.00337571 121.5 253.5625 C118.40898135 255.33983573 115.92075095 255.46868356 112.41015625 255.75 C109.20967721 256.08197838 106.1606388 256.81965844 103.04296875 257.59765625 C101 258 101 258 97 258 C96.67 258.66 96.34 259.32 96 260 C94.68 259.67 93.36 259.34 92 259 C92 259.66 92 260.32 92 261 C90.02 261 88.04 261 86 261 C86 261.33 86 261.66 86 262 C83.69 261.67 81.38 261.34 79 261 C79 261.66 79 262.32 79 263 C78.09636719 262.98839844 77.19273437 262.97679687 76.26171875 262.96484375 C75.08222656 262.95582031 73.90273438 262.94679688 72.6875 262.9375 C71.51574219 262.92589844 70.34398437 262.91429687 69.13671875 262.90234375 C65.96940805 262.85100102 65.96940805 262.85100102 63 264 C56.22944377 264.31107961 49.69583453 264.03012839 43 263 C39.99778227 262.91754814 37.00246906 262.93872512 34 263 C34 262.34 34 261.68 34 261 C32.02 261.33 30.04 261.66 28 262 C28 261.34 28 260.68 28 260 C25.69 260.33 23.38 260.66 21 261 C21 260.34 21 259.68 21 259 C19.35 259.33 17.7 259.66 16 260 C16 259.34 16 258.68 16 258 C11.45852413 257.40018243 6.94286528 256.91243222 2.375 256.5625 C-1.67877656 256.2129393 -5.20021466 255.54045352 -9 254 C-9 253.34 -9 252.68 -9 252 C-9.71285156 251.87882813 -10.42570312 251.75765625 -11.16015625 251.6328125 C-25.52152608 249.120056 -25.52152608 249.120056 -29.0625 246.4375 C-31.63176472 244.53127133 -33.85699957 244.39287505 -37 244 C-38.11375 243.6596875 -38.11375 243.6596875 -39.25 243.3125 C-40.11625 243.1578125 -40.11625 243.1578125 -41 243 C-41.66 243.66 -42.32 244.32 -43 245 C-42.34 245.33 -41.68 245.66 -41 246 C-40.0925 246.66 -39.185 247.32 -38.25 248 C-34.98349875 250.01015461 -32.77347274 250.64062164 -29 251 C-28.67 251.99 -28.34 252.98 -28 254 C-25.99528611 254.77112101 -25.99528611 254.77112101 -23.625 255.125 C-19.15434623 255.95505624 -16.14508201 256.55538637 -13 260 C-14.14006748 263.94638742 -15.14401884 266.14401884 -18 269 C-18.28875 269.928125 -18.5775 270.85625 -18.875 271.8125 C-19.89711889 274.70850351 -20.6233927 275.95391509 -22.5625 278.1875 C-25.14902427 280.80981981 -25.14902427 280.80981981 -26 284 C-27.29181608 286.95272247 -28.74194902 288.74194902 -31 291 C-31.27199219 291.67289062 -31.54398437 292.34578125 -31.82421875 293.0390625 C-33 295 -33 295 -34.98828125 295.6796875 C-39.52366617 296.06081228 -42.86776668 296.26606344 -47 294 C-47 293.34 -47 292.68 -47 292 C-47.86625 291.87625 -48.7325 291.7525 -49.625 291.625 C-52.912302 291.01624037 -55.84569607 290.09435034 -59 289 C-60.2375 288.649375 -61.475 288.29875 -62.75 287.9375 C-66 287 -66 287 -68 286 C-68 285.34 -68 284.68 -68 284 C-69.216875 283.896875 -70.43375 283.79375 -71.6875 283.6875 C-75.40147573 283.22572682 -77.99626385 282.34666887 -81 280 C-81 279.34 -81 278.68 -81 278 C-82.08667969 277.76216797 -82.08667969 277.76216797 -83.1953125 277.51953125 C-92.06672764 275.37856306 -92.06672764 275.37856306 -95.375 272.375 C-98.19242518 269.82590102 -99.3752723 269.55765042 -103 269 C-106.18856289 267.32980039 -108.47959896 265.52040104 -111 263 C-112.32467746 262.3162955 -113.65863633 261.65035814 -115 261 C-116.33849671 260.00692179 -117.67151309 259.00642948 -119 258 C-120.175625 257.319375 -120.175625 257.319375 -121.375 256.625 C-123.50966132 255.30354299 -125.28388033 253.98682396 -127.1875 252.375 C-129.7359854 250.03393118 -129.7359854 250.03393118 -132 249 C-133.61328125 247.76171875 -133.61328125 247.76171875 -135 246 C-135.29296875 243.51953125 -135.29296875 243.51953125 -135.1875 240.8125 C-135.16042969 239.91144531 -135.13335937 239.01039063 -135.10546875 238.08203125 C-135.07066406 237.39496094 -135.03585938 236.70789063 -135 236 C-135.33 236 -135.66 236 -136 236 C-136.02534499 229.09489729 -136.04286478 222.18980657 -136.05493164 215.28466797 C-136.05996189 212.93537955 -136.0667868 210.58609427 -136.07543945 208.23681641 C-136.08756218 204.86099474 -136.0932414 201.48521445 -136.09765625 198.109375 C-136.10281754 197.05820496 -136.10797882 196.00703491 -136.11329651 194.92401123 C-136.11337204 193.94329651 -136.11344757 192.96258179 -136.11352539 191.95214844 C-136.115746 191.09055115 -136.11796661 190.22895386 -136.12025452 189.34124756 C-136.00448392 187.08729785 -135.57884889 185.17219606 -135 183 C-135.020625 182.236875 -135.04125 181.47375 -135.0625 180.6875 C-135 178 -135 178 -134 174.5625 C-132.86768698 171.14533319 -132.86768698 171.14533319 -133 168.0625 C-133 165.3746668 -132.71154624 163.65988348 -132 161.125 C-131.21113873 158.24538053 -130.88754732 155.73606029 -130.9375 152.75 C-130.98668542 149.79887473 -130.91647865 147.74943595 -130 145 C-129.34 145 -128.68 145 -128 145 C-128.309375 143.88625 -128.309375 143.88625 -128.625 142.75 C-129.06373619 139.5326013 -128.49165421 138.78649294 -127 136 C-124.97199497 130.88347354 -123.73522096 126.56035976 -124 121 C-123.67 120.01 -123.34 119.02 -123 118 C-122.34 118 -121.68 118 -121 118 C-121.33 117.01 -121.66 116.02 -122 115 C-121.34 115 -120.68 115 -120 115 C-119.40638966 112.20155126 -118.94131389 109.47182499 -118.625 106.625 C-117.93502343 102.62313588 -116.7175362 99.65909886 -115 96 C-114.34 96 -113.68 96 -113 96 C-113.0825 95.01 -113.165 94.02 -113.25 93 C-113.25934566 88.40193442 -111.47362719 84.80558029 -109 81 C-108.21496094 80.25556641 -108.21496094 80.25556641 -107.4140625 79.49609375 C-105.39574588 77.36069247 -105.33038769 74.98259398 -104.734375 72.1875 C-103.61769481 68.86121859 -101.50396372 66.51136608 -99.31640625 63.8125 C-97.70447874 61.5931102 -97.43442395 59.67894768 -97 57 C-95.67189785 55.32916181 -94.33827304 53.66270287 -93 52 C-92.71125 51.071875 -92.4225 50.14375 -92.125 49.1875 C-90.80239881 45.44012995 -88.81956366 42.97627225 -86.37890625 39.8828125 C-84.85841739 37.97312994 -84.85841739 37.97312994 -83.9375 35.3125 C-82.64756208 32.13065314 -80.49670539 30.29959707 -78 28 C-78.495 27.01 -78.495 27.01 -79 26 C-77.4221875 25.3503125 -77.4221875 25.3503125 -75.8125 24.6875 C-73.50698255 23.71066429 -71.56659897 22.72516032 -69.4375 21.375 C-66.58328356 19.76492919 -64.23715334 19.40464417 -61 19 C-58.27497035 18.62277985 -58.27497035 18.62277985 -56 18 C-55.67 17.34 -55.34 16.68 -55 16 C-51.71164573 14.44716604 -48.56162315 13.64756785 -45 13 C-43.39474566 12.65079627 -41.79064492 12.29626326 -40.1875 11.9375 C-39.00220703 11.67259766 -39.00220703 11.67259766 -37.79296875 11.40234375 C-37.20128906 11.26957031 -36.60960937 11.13679688 -36 11 C-36 10.34 -36 9.68 -36 9 C-31.31398341 7.74481698 -26.90704259 6.86986708 -22.07421875 6.34765625 C-18.95710517 5.82520218 -16.07735691 4.74902844 -13.10546875 3.6953125 C-10.43712863 2.81411669 -7.77874394 2.38773171 -5 2 C-2.2179084 1.5201518 -2.2179084 1.5201518 0 0 Z M-112 89 C-111 91 -111 91 -111 91 Z M-13 127 C-13 127.66 -13 128.32 -13 129 C-13.99 128.67 -14.98 128.34 -16 128 C-16 128.66 -16 129.32 -16 130 C-16.969375 130 -17.93875 130 -18.9375 130 C-24.55115112 130.80195016 -28.44352689 134.83110517 -32 139 C-33.10514568 141.39752679 -33.51863077 143.37921195 -34 146 C-34.66 146.33 -35.32 146.66 -36 147 C-40.85985347 155.74773625 -41.39417895 164.911985 -38.6875 174.5625 C-37.65667858 177.8840357 -36.51518363 179.63032286 -34 182 C-33.87625 182.598125 -33.7525 183.19625 -33.625 183.8125 C-32.6275375 187.30361874 -30.47316824 189.41180068 -28 192 C-25.83468832 192.94436349 -25.83468832 192.94436349 -24 193 C-24 193.66 -24 194.32 -24 195 C-18.8131384 198.13058152 -14.51275889 198.52316861 -8.625 198.6875 C-7.79355469 198.72166016 -6.96210938 198.75582031 -6.10546875 198.79101562 C-4.07076649 198.87287146 -2.03540792 198.93812701 0 199 C0 198.34 0 197.68 0 197 C0.721875 197.226875 1.44375 197.45375 2.1875 197.6875 C5.911623 198.10129144 7.05828018 197.27983286 10 195 C11.67067133 193.00334402 13.33752986 191.00348966 15 189 C17.25 187.75 17.25 187.75 19 187 C20.3157194 184.3685612 21 181.94885691 21 179 C21.66 178.67 22.32 178.34 23 178 C23.71727778 176.35448038 24.38325228 174.68577711 25 173 C25.495 172.01 25.495 172.01 26 171 C26.12444602 168.6065847 26.17567069 166.20911922 26.1875 163.8125 C26.20167969 162.51957031 26.21585937 161.22664063 26.23046875 159.89453125 C25.99225711 155.8691583 25.24841553 152.80445997 24 149 C23.34 149 22.68 149 22 149 C22 147.68 22 146.36 22 145 C21.34 144.67 20.68 144.34 20 144 C19.9175 143.4225 19.835 142.845 19.75 142.25 C18.77189302 139.31567906 16.93932572 138.08038802 14.54296875 136.23046875 C13 135 13 135 11 132.8125 C8.51375289 130.55933856 6.18944077 129.95004619 3 129 C2.01 128.34 1.02 127.68 0 127 C-3.20379124 126.75753217 -3.20379124 126.75753217 -6.6875 126.875 C-7.86699219 126.89304687 -9.04648438 126.91109375 -10.26171875 126.9296875 C-11.61716797 126.96449219 -11.61716797 126.96449219 -13 127 Z M110 128 C110 128.66 110 129.32 110 130 C108.96875 130.020625 107.9375 130.04125 106.875 130.0625 C102.27030251 131.17653972 101.18169807 132.5380159 98.4140625 136.1640625 C97 138 97 138 94.25 140.625 C91.95420462 143.04833957 90.86669111 144.79324289 90 148 C90.33 148.66 90.66 149.32 91 150 C90.34 150.33 89.68 150.66 89 151 C88.67 151.99 88.34 152.98 88 154 C88.33 154.66 88.66 155.32 89 156 C88.34 156 87.68 156 87 156 C87 160.62 87 165.24 87 170 C87.66 170 88.32 170 89 170 C88.67 171.32 88.34 172.64 88 174 C88.66 174 89.32 174 90 174 C89.67 174.99 89.34 175.98 89 177 C89.66 177 90.32 177 91 177 C91.103125 178.093125 91.20625 179.18625 91.3125 180.3125 C92.02723241 184.14606473 92.17646672 184.6806691 95 187 C95.86520523 188.05353066 96.71848383 189.11691901 97.5625 190.1875 C98.366875 191.115625 99.17125 192.04375 100 193 C100.66 193 101.32 193 102 193 C102.8971875 193.9590625 102.8971875 193.9590625 103.8125 194.9375 C106.28644004 197.27007204 107.65338767 197.73579376 111 198 C111.99 197.505 111.99 197.505 113 197 C113.495 197.99 113.495 197.99 114 199 C126.78365849 198.78371776 126.78365849 198.78371776 137.8125 193.5 C138.534375 192.675 139.25625 191.85 140 191 C140.70125 190.71125 141.4025 190.4225 142.125 190.125 C145.16401857 188.30158886 145.70994381 185.19709577 147 182 C147.98020375 180.9805881 148.97803008 179.97753644 150 179 C152.48447872 173.71835463 152.36738413 168.92605898 152.375 163.1875 C152.41173828 161.74793945 152.41173828 161.74793945 152.44921875 160.27929688 C152.47552918 153.85516616 151.42406245 149.43395927 148 144 C147.0409375 142.4221875 147.0409375 142.4221875 146.0625 140.8125 C141.86726739 135.09172826 138.29374097 131.78068018 131.25 130.5 C130.13625 130.2525 130.13625 130.2525 129 130 C128.505 129.01 128.505 129.01 128 128 C127.34 128.33 126.68 128.66 126 129 C126 128.34 126 127.68 126 127 C123.89590361 126.97298592 121.79170822 126.95359777 119.6875 126.9375 C117.92986328 126.92009766 117.92986328 126.92009766 116.13671875 126.90234375 C112.96940805 126.85100102 112.96940805 126.85100102 110 128 Z M50 262 C50 262.33 50 262.66 50 263 C53.96 263 57.92 263 62 263 C62 262.67 62 262.34 62 262 C58.04 262 54.08 262 50 262 Z " fill="#c4a86b" transform="translate(200,108)"/>
<path d="M0 0 C1.32 0.33 2.64 0.66 4 1 C4 1.66 4 2.32 4 3 C4.66 3 5.32 3 6 3 C6.66 5.97 7.32 8.94 8 12 C7.01 12 6.02 12 5 12 C4.2575 11.154375 3.515 10.30875 2.75 9.4375 C0.21412573 6.6233474 0.21412573 6.6233474 -3.1875 7.125 C-4.445625 7.41375 -5.70375 7.7025 -7 8 C-8.62262796 8.18836477 -10.24803995 8.35369972 -11.875 8.5 C-16.58893597 8.95548768 -21.29401936 9.46867961 -26 10 C-26 9.34 -26 8.68 -26 8 C-25.10796875 7.73445313 -24.2159375 7.46890625 -23.296875 7.1953125 C-22.12640625 6.84210938 -20.9559375 6.48890625 -19.75 6.125 C-18.00976562 5.60292969 -18.00976562 5.60292969 -16.234375 5.0703125 C-13.12670225 4.13471551 -13.12670225 4.13471551 -10.875 2.90625 C-8.62939106 1.82087235 -6.72688318 1.59354852 -4.25 1.375 C-3.45078125 1.30023438 -2.6515625 1.22546875 -1.828125 1.1484375 C-0.92320312 1.07496094 -0.92320312 1.07496094 0 1 C0 0.67 0 0.34 0 0 Z " fill="#c8af77" transform="translate(200,108)"/>
<path d="M0 0 C0.33 0 0.66 0 1 0 C0.96970703 0.91249512 0.93941406 1.82499023 0.90820312 2.76513672 C0.18111551 25.18460365 -0.13960252 47.56909721 0 70 C-0.66 70 -1.32 70 -2 70 C-2 66.7 -2 63.4 -2 60 C-2.33 60 -2.66 60 -3 60 C-3.02534499 53.09489729 -3.04286478 46.18980657 -3.05493164 39.28466797 C-3.05996189 36.93537955 -3.0667868 34.58609427 -3.07543945 32.23681641 C-3.08756218 28.86099474 -3.0932414 25.48521445 -3.09765625 22.109375 C-3.10281754 21.05820496 -3.10797882 20.00703491 -3.11329651 18.92401123 C-3.11337204 17.94329651 -3.11344757 16.96258179 -3.11352539 15.95214844 C-3.115746 15.09055115 -3.11796661 14.22895386 -3.12025452 13.34124756 C-3.00444274 11.08649623 -2.57329355 9.17424715 -2 7 C-2.0309375 5.700625 -2.0309375 5.700625 -2.0625 4.375 C-2 2 -2 2 0 0 Z " fill="#bea05d" transform="translate(67,284)"/>
<path d="M0 0 C0.928125 0.165 1.85625 0.33 2.8125 0.5 C7.0957663 1.13195732 11.32470608 1.03283407 15.64453125 0.9375 C18 1 18 1 20 2 C20 2.66 20 3.32 20 4 C20.61875 3.814375 21.2375 3.62875 21.875 3.4375 C24 3 24 3 26 4 C26 4.66 26 5.32 26 6 C26.73605469 6.13277344 27.47210938 6.26554687 28.23046875 6.40234375 C29.20628906 6.57894531 30.18210937 6.75554687 31.1875 6.9375 C32.15042969 7.11152344 33.11335938 7.28554687 34.10546875 7.46484375 C36.74239972 7.9523735 39.3719905 8.46671105 42 9 C42.495 11.475 42.495 11.475 43 14 C37.76231886 12.43838842 32.53045219 10.85989539 27.30859375 9.24609375 C26.34373047 8.94896484 25.37886719 8.65183594 24.38476562 8.34570312 C22.41525351 7.73879581 20.44650405 7.12940819 18.47851562 6.51757812 C13.95483314 5.1287017 9.48733331 3.85056934 4.84765625 2.91015625 C3.57792969 2.60980469 2.30820312 2.30945313 1 2 C0.67 1.34 0.34 0.68 0 0 Z " fill="#cbb47f" transform="translate(325,114)"/>
<path d="M0 0 C-1.37683558 2.75367116 -2.74988411 2.82175474 -5.62109375 3.83984375 C-6.55630859 4.18080078 -7.49152344 4.52175781 -8.45507812 4.87304688 C-10.4386591 5.58100472 -12.42303285 6.28674537 -14.40820312 6.99023438 C-15.34470703 7.33248047 -16.28121094 7.67472656 -17.24609375 8.02734375 C-18.10904053 8.33406006 -18.9719873 8.64077637 -19.86108398 8.95678711 C-22.32009978 9.93341377 -22.32009978 9.93341377 -24 13 C-25.9453125 13.29296875 -25.9453125 13.29296875 -28.125 13.1875 C-30.043125 13.0946875 -30.043125 13.0946875 -32 13 C-30.49764924 8.49294771 -27.12252159 7.07641712 -23 5 C-19.8125 4.25 -19.8125 4.25 -17 4 C-14.27497035 3.62277985 -14.27497035 3.62277985 -12 3 C-11.67 2.34 -11.34 1.68 -11 1 C-6.8204355 -1.78637633 -4.85331323 -0.79562512 0 0 Z " fill="#ccb581" transform="translate(156,123)"/>
<path d="M0 0 C0 0.33 0 0.66 0 1 C-13.2 1 -26.4 1 -40 1 C-39.67 0.34 -39.34 -0.32 -39 -1 C-26.1105954 -3.52733423 -12.8734178 -1.74554818 0 0 Z " fill="#d7c49b" transform="translate(281,129)"/>
<path d="M0 0 C0.33 0 0.66 0 1 0 C1.125 7.625 1.125 7.625 0 11 C0.66 11 1.32 11 2 11 C2 20.9 2 30.8 2 41 C1.67 41 1.34 41 1 41 C0.94465088 40.31897217 0.88930176 39.63794434 0.83227539 38.9362793 C0.57952368 35.85302403 0.32107872 32.77027182 0.0625 29.6875 C-0.06801758 28.0797168 -0.06801758 28.0797168 -0.20117188 26.43945312 C-0.28818359 25.41142578 -0.37519531 24.38339844 -0.46484375 23.32421875 C-0.543396 22.37635498 -0.62194824 21.42849121 -0.70288086 20.4519043 C-0.93323104 17.86729743 -0.93323104 17.86729743 -2 15 C-2.4413121 9.61188711 -2.07424894 5.05598179 0 0 Z " fill="#8a7037" transform="translate(447,287)"/>
<path d="M0 0 C2.23212073 1.00060584 3.80255169 1.77679757 5.4375 3.625 C7.6092297 5.53612213 9.19507925 5.14762741 12 5 C12.33 5.33 12.66 5.66 13 6 C16.19141313 5.81537279 19.36050009 5.54449999 22.54101562 5.22851562 C24.35584564 5.07566934 26.17900887 5.03100439 28 5 C28.66 5.66 29.32 6.32 30 7 C23.3793806 10.05943595 15.9969261 10.10331814 9 8.171875 C5.4704232 6.79698171 2.69564574 5.69564574 0 3 C0 2.01 0 1.02 0 0 Z " fill="#ae8e46" transform="translate(301,300)"/>
<path d="M0 0 C0.66 0 1.32 0 2 0 C3 3 3 3 1.6875 5.875 C1.130625 6.90625 0.57375 7.9375 0 9 C-0.309375 9.78375 -0.61875 10.5675 -0.9375 11.375 C-2.41645191 15.0288812 -4.21344381 18.48643949 -6 22 C-13.425 21.01 -13.425 21.01 -21 20 C-21 19.67 -21 19.34 -21 19 C-19.04174127 18.97305149 -17.08337774 18.95362782 -15.125 18.9375 C-14.03445313 18.92589844 -12.94390625 18.91429687 -11.8203125 18.90234375 C-9 19 -9 19 -7 20 C-6.7834375 18.081875 -6.7834375 18.081875 -6.5625 16.125 C-6.29357254 13.74307106 -6.07773654 12.15547309 -5 10 C-4.34 10 -3.68 10 -3 10 C-2.814375 8.3603125 -2.814375 8.3603125 -2.625 6.6875 C-2 3 -2 3 0 0 Z " fill="#d1bc8c" transform="translate(307,111)"/>
<path d="M0 0 C0.66 0.33 1.32 0.66 2 1 C1.34 2.98 0.68 4.96 0 7 C-3.3 7 -6.6 7 -10 7 C-10 7.33 -10 7.66 -10 8 C-16.93 7.505 -16.93 7.505 -24 7 C-24 6.67 -24 6.34 -24 6 C-29.94 5.01 -29.94 5.01 -36 4 C-36 3.67 -36 3.34 -36 3 C-35.11739502 3.03029297 -34.23479004 3.06058594 -33.32543945 3.09179688 C-30.03607383 3.2042908 -26.74668413 3.31602284 -23.45727539 3.42724609 C-22.03636663 3.47544539 -20.615468 3.52394415 -19.19458008 3.57275391 C-17.14667335 3.64304983 -15.09873206 3.71225189 -13.05078125 3.78125 C-11.82012939 3.82314453 -10.58947754 3.86503906 -9.3215332 3.90820312 C-6.54496654 3.98493882 -3.77729118 4.01843845 -1 4 C-0.67 2.68 -0.34 1.36 0 0 Z " fill="#cdb581" transform="translate(300,124)"/>
<path d="M0 0 C2.18785263 0.98076152 3.75512761 1.70848526 5.3125 3.5625 C7.90240655 5.76871669 10.73131999 5.72618387 14 6 C14.99644531 6.103125 15.99289063 6.20625 17.01953125 6.3125 C23.09028429 7.05504227 23.09028429 7.05504227 29 6 C29.99 6.66 30.98 7.32 32 8 C21.38630069 10.43593099 13.93440133 11.16027207 4 6 C1.375 3.875 1.375 3.875 0 2 C0 1.34 0 0.68 0 0 Z " fill="#b59348" transform="translate(173,299)"/>
<path d="M0 0 C0.66 0.33 1.32 0.66 2 1 C-4.73537739 5.76404742 -10.47531826 8.55899974 -18.875 8.4375 C-19.57173828 8.43427734 -20.26847656 8.43105469 -20.98632812 8.42773438 C-26.70005704 8.27359657 -31.16983336 7.00543702 -36 4 C-35.34 3.67 -34.68 3.34 -34 3 C-32.3603125 3.7115625 -32.3603125 3.7115625 -30.6875 4.4375 C-23.5960155 7.28188664 -15.33973953 6.68854861 -8 5 C-8 4.34 -8 3.68 -8 3 C-8.66 2.67 -9.32 2.34 -10 2 C-9.04287109 1.90912109 -9.04287109 1.90912109 -8.06640625 1.81640625 C-7.24011719 1.73261719 -6.41382813 1.64882813 -5.5625 1.5625 C-4.73878906 1.48128906 -3.91507812 1.40007812 -3.06640625 1.31640625 C-1.01337975 1.21069185 -1.01337975 1.21069185 0 0 Z " fill="#cbb47f" transform="translate(339,302)"/>
<path d="M0 0 C0.66 1.32 1.32 2.64 2 4 C1.34 4 0.68 4 0 4 C0 8.62 0 13.24 0 18 C0.66 18 1.32 18 2 18 C1.67 19.32 1.34 20.64 1 22 C1.66 22 2.32 22 3 22 C4.93548387 27.67741935 4.93548387 27.67741935 5.4375 30.1875 C6.13445606 32.43324729 7.24671801 33.47540696 9 35 C6.20171644 34.61402985 5.1794116 34.19863427 3.25 32.0625 C2 30 2 30 2 28 C1.34 27.67 0.68 27.34 0 27 C-0.99088004 21.3682894 -1.15503496 15.83164331 -1.125 10.125 C-1.12886719 9.36703125 -1.13273437 8.6090625 -1.13671875 7.828125 C-1.12679967 2.25359933 -1.12679967 2.25359933 0 0 Z " fill="#af8e46" transform="translate(287,260)"/>
<path d="M0 0 C-1.44950455 3.7910119 -3.15172566 7.3874638 -5 11 C-5.66 11 -6.32 11 -7 11 C-7.061875 11.7425 -7.12375 12.485 -7.1875 13.25 C-8.24185138 16.8185739 -9.99909773 17.92245228 -13 20 C-12.54738642 18.56068883 -12.08767021 17.12361001 -11.625 15.6875 C-11.36976562 14.88699219 -11.11453125 14.08648437 -10.8515625 13.26171875 C-10 11 -10 11 -8 8 C-7.71125 7.175 -7.4225 6.35 -7.125 5.5 C-5.65243622 2.22763604 -3.75560998 0 0 0 Z " fill="#cab27b" transform="translate(123,138)"/>
<path d="M0 0 C0 0.33 0 0.66 0 1 C-3.35296491 1.50828443 -6.70753343 2.00511457 -10.0625 2.5 C-11.47692383 2.71462891 -11.47692383 2.71462891 -12.91992188 2.93359375 C-18.00732242 3.67809139 -22.8587994 4.17113566 -28 4 C-28 3.34 -28 2.68 -28 2 C-18.76544501 -0.59866874 -9.495025 -0.18617696 0 0 Z " fill="#d7c49b" transform="translate(240,129)"/>
<path d="M0 0 C0.33 0 0.66 0 1 0 C1.02703381 1.93742341 1.04641125 3.87495479 1.0625 5.8125 C1.07410156 6.89144531 1.08570313 7.97039062 1.09765625 9.08203125 C1 12 1 12 0 15 C-0.06802967 16.72795352 -0.08495645 18.45835365 -0.0625 20.1875 C-0.04896484 21.53908203 -0.04896484 21.53908203 -0.03515625 22.91796875 C-0.02355469 23.60503906 -0.01195312 24.29210937 0 25 C-0.99 25.33 -1.98 25.66 -3 26 C-3.33 24.68 -3.66 23.36 -4 22 C-3.34 22 -2.68 22 -2 22 C-2 16.39 -2 10.78 -2 5 C-1.34 5 -0.68 5 0 5 C0 3.35 0 1.7 0 0 Z " fill="#997d3e" transform="translate(448,329)"/>
<path d="M0 0 C0.33 0 0.66 0 1 0 C0.49354466 8.68517024 -0.02295299 17.35209459 -1 26 C-1.66 25.67 -2.32 25.34 -3 25 C-3.02707139 22.75006641 -3.04642829 20.50003905 -3.0625 18.25 C-3.07410156 16.99703125 -3.08570313 15.7440625 -3.09765625 14.453125 C-3.01934367 11.68399207 -2.75319031 9.61823298 -2 7 C-2.0309375 5.700625 -2.0309375 5.700625 -2.0625 4.375 C-2 2 -2 2 0 0 Z " fill="#a48642" transform="translate(67,284)"/>
<path d="M0 0 C1.75070517 0.11470137 3.50057536 0.24219028 5.25 0.375 C6.22453125 0.44460937 7.1990625 0.51421875 8.203125 0.5859375 C10.99380301 0.99908257 12.74117138 1.31105933 15 3 C15.75 5.625 15.75 5.625 16 8 C14.08210046 7.37879354 12.16572478 6.75288109 10.25 6.125 C8.64898437 5.60292969 8.64898437 5.60292969 7.015625 5.0703125 C4.54450739 4.1932578 2.3026308 3.24073795 0 2 C0 1.34 0 0.68 0 0 Z " fill="#cbb37d" transform="translate(369,127)"/>
<path d="M0 0 C0.99 0.495 0.99 0.495 2 1 C1.67 1.99 1.34 2.98 1 4 C1.66 4 2.32 4 3 4 C3.144375 4.9075 3.28875 5.815 3.4375 6.75 C3.90183333 9.8278291 3.90183333 9.8278291 4.625 12.0625 C5.1118389 14.57783433 4.61560812 16.53756752 4 19 C1.9375 16.6875 1.9375 16.6875 0 14 C0.33 13.01 0.66 12.02 1 11 C0.67 10.01 0.34 9.02 0 8 C-0.12781786 5.32605036 -0.04391871 2.67904143 0 0 Z " fill="#ba9b54" transform="translate(438,242)"/>
<path d="M0 0 C2.475 0.99 2.475 0.99 5 2 C5 2.66 5 3.32 5 4 C7.97 4.99 10.94 5.98 14 7 C10 9 10 9 7.45703125 8.390625 C6.58433594 8.01421875 5.71164063 7.6378125 4.8125 7.25 C3.93207031 6.88390625 3.05164063 6.5178125 2.14453125 6.140625 C0 5 0 5 -1 3 C-0.67 2.67 -0.34 2.34 0 2 C0 1.34 0 0.68 0 0 Z " fill="#ba9a52" transform="translate(167,358)"/>
<path d="M0 0 C0.33 0 0.66 0 1 0 C2.11165232 4.4378561 2.11527763 8.76956386 2.0625 13.3125 C2.05798828 14.05306641 2.05347656 14.79363281 2.04882812 15.55664062 C2.03712175 17.37112899 2.01918898 19.18557534 2 21 C1.34 21 0.68 21 0 21 C0 17.7 0 14.4 0 11 C-0.33 11 -0.66 11 -1 11 C-1.02688151 9.35425434 -1.04634123 7.70838587 -1.0625 6.0625 C-1.07410156 5.14597656 -1.08570313 4.22945313 -1.09765625 3.28515625 C-1 1 -1 1 0 0 Z " fill="#a68743" transform="translate(65,333)"/>
<path d="M0 0 C0.66 0 1.32 0 2 0 C2 4.62 2 9.24 2 14 C1.01 13.67 0.02 13.34 -1 13 C-1.02686553 11.02090602 -1.04633375 9.04171029 -1.0625 7.0625 C-1.07410156 5.96035156 -1.08570313 4.85820312 -1.09765625 3.72265625 C-1 1 -1 1 0 0 Z " fill="#a48642" transform="translate(352,264)"/>
<path d="M0 0 C0.66 0.99 1.32 1.98 2 3 C1.67 3.99 1.34 4.98 1 6 C0.34 6 -0.32 6 -1 6 C-1.309375 6.94875 -1.61875 7.8975 -1.9375 8.875 C-3 12 -3 12 -4 14 C-4.66 14 -5.32 14 -6 14 C-5.05944297 8.31953056 -4.13782924 4.27575688 0 0 Z " fill="#c9b078" transform="translate(107,160)"/>
<path d="M0 0 C0.33 0 0.66 0 1 0 C1 2.97 1 5.94 1 9 C-0.98 9.99 -0.98 9.99 -3 11 C-3.33 11.66 -3.66 12.32 -4 13 C-4.99 12.67 -5.98 12.34 -7 12 C-5.625 9.5 -5.625 9.5 -4 7 C-3.34 7 -2.68 7 -2 7 C-1.34 4.69 -0.68 2.38 0 0 Z " fill="#bc9d59" transform="translate(351,282)"/>
<path d="M0 0 C0.33 0.66 0.66 1.32 1 2 C1.66 2.33 2.32 2.66 3 3 C4.678298 4.31866272 6.34614767 5.65080468 8 7 C5.69 7.33 3.38 7.66 1 8 C1 7.34 1 6.68 1 6 C0.01 5.67 -0.98 5.34 -2 5 C-1.34 3.35 -0.68 1.7 0 0 Z " fill="#b7964c" transform="translate(156,351)"/>
<path d="M0 0 C0 0.33 0 0.66 0 1 C-2.64 1.33 -5.28 1.66 -8 2 C-7.67 2.66 -7.34 3.32 -7 4 C-9.64 4 -12.28 4 -15 4 C-15 3.67 -15 3.34 -15 3 C-17.31 2.67 -19.62 2.34 -22 2 C-22 1.67 -22 1.34 -22 1 C-14.63959083 0.20274098 -7.40239645 -0.12886183 0 0 Z " fill="#c8ae75" transform="translate(250,127)"/>
<path d="M0 0 C2.97 0.33 5.94 0.66 9 1 C6.71185277 3.28814723 5.19248378 3.75451161 2.125 4.6875 C1.26132813 4.95949219 0.39765625 5.23148437 -0.4921875 5.51171875 C-3.08694932 6.01692938 -4.530785 5.85561171 -7 5 C-6.030625 4.54625 -5.06125 4.0925 -4.0625 3.625 C-0.92920418 2.34213779 -0.92920418 2.34213779 0 0 Z " fill="#d3bf91" transform="translate(164,117)"/>
<path d="M0 0 C0.66 0.99 1.32 1.98 2 3 C-5.42857143 5.42857143 -5.42857143 5.42857143 -9 4 C-7.00267591 0.00535181 -4.113506 -0.52737256 0 0 Z " fill="#b7964c" transform="translate(349,358)"/>
<path d="M0 0 C-1 3 -1 3 -3.9375 4.75 C-5.4534375 5.36875 -5.4534375 5.36875 -7 6 C-7.66 5.67 -8.32 5.34 -9 5 C-8.00233891 2.50584728 -7.31383315 1.21259665 -5.0625 -0.3125 C-3 -1 -3 -1 0 0 Z " fill="#b8984f" transform="translate(360,353)"/>
<path d="M0 0 C-4.21345498 3.11713854 -7.7410905 3.37676791 -12.8125 3.1875 C-13.85180664 3.16719727 -13.85180664 3.16719727 -14.91210938 3.14648438 C-16.60841265 3.11138845 -18.30431136 3.05758943 -20 3 C-19.67 2.34 -19.34 1.68 -19 1 C-18.1646875 1.03480469 -18.1646875 1.03480469 -17.3125 1.0703125 C-13.1948443 1.16768949 -9.5507644 1.02786953 -5.5625 -0.0625 C-2 -1 -2 -1 0 0 Z " fill="#d3bf92" transform="translate(207,307)"/>
<path d="M0 0 C0.66 0.66 1.32 1.32 2 2 C0.68 4.97 -0.64 7.94 -2 11 C-2.66 10.34 -3.32 9.68 -4 9 C-3.79107816 5.72689117 -3.56305786 3.67566943 -1.4375 1.125 C-0.963125 0.75375 -0.48875 0.3825 0 0 Z " fill="#bfa15f" transform="translate(86,205)"/>
<path d="M0 0 C2.625 -0.1875 2.625 -0.1875 5 0 C0.62207671 5.71562208 0.62207671 5.71562208 -2.1875 7 C-2.785625 7 -3.38375 7 -4 7 C-4.66 6.34 -5.32 5.68 -6 5 C-5.38125 4.731875 -4.7625 4.46375 -4.125 4.1875 C-1.7004767 3.04443152 -1.7004767 3.04443152 0 0 Z " fill="#c6ab70" transform="translate(211,300)"/>
<path d="M0 0 C0.66 0.33 1.32 0.66 2 1 C1.67 3.31 1.34 5.62 1 8 C-0.32 8.33 -1.64 8.66 -3 9 C-3 8.01 -3 7.02 -3 6 C-2.34 6 -1.68 6 -1 6 C-1.33 4.35 -1.66 2.7 -2 1 C-1.34 0.67 -0.68 0.34 0 0 Z " fill="#bea05c" transform="translate(73,247)"/>
<path d="M0 0 C-9.41002278 3.44419134 -9.41002278 3.44419134 -14 3 C-14 2.34 -14 1.68 -14 1 C-11.76266993 -0.11866503 -10.04151924 -0.34005526 -7.5625 -0.625 C-6.78003906 -0.72039062 -5.99757812 -0.81578125 -5.19140625 -0.9140625 C-3 -1 -3 -1 0 0 Z " fill="#d8c69d" transform="translate(188,115)"/>
<path d="M0 0 C0.33 1.32 0.66 2.64 1 4 C-0.43836751 3.88541307 -1.87570966 3.75790884 -3.3125 3.625 C-4.11300781 3.55539063 -4.91351563 3.48578125 -5.73828125 3.4140625 C-8 3 -8 3 -11 1 C-3.375 0 -3.375 0 0 0 Z " fill="#cdb683" transform="translate(321,110)"/>
<path d="M0 0 C2.31 0 4.62 0 7 0 C7 0.66 7 1.32 7 2 C7.66 2 8.32 2 9 2 C9.33 3.32 9.66 4.64 10 6 C6.20696275 4.99806563 3.28463659 4.18975773 0 2 C0 1.34 0 0.68 0 0 Z " fill="#a68742" transform="translate(170,352)"/>
<path d="M0 0 C0.33 0 0.66 0 1 0 C0.67 5.94 0.34 11.88 0 18 C-2.70454841 13.94317738 -2.42076588 10.75789116 -2 6 C-1 2.4375 -1 2.4375 0 0 Z " fill="#aa8a44" transform="translate(447,287)"/>
<path d="M0 0 C1.33333333 0.66666667 2.66666667 1.33333333 4 2 C4.680625 2.2475 5.36125 2.495 6.0625 2.75 C8.94567353 4.61011195 9.78156418 6.85771814 11 10 C10.67 10.99 10.34 11.98 10 13 C7.74754119 10.31158141 6.11786042 8.35358125 5 5 C3.37347684 3.29413425 1.70993434 1.6222454 0 0 Z " fill="#b7964c" transform="translate(339,242)"/>
<path d="M0 0 C0.99 0.66 1.98 1.32 3 2 C1 4 1 4 -1 5 C-1.33 5.99 -1.66 6.98 -2 8 C-3.32 7.67 -4.64 7.34 -6 7 C-6 6.34 -6 5.68 -6 5 C-5.34 5 -4.68 5 -4 5 C-4 4.01 -4 3.02 -4 2 C-3.01 2 -2.02 2 -1 2 C-0.67 1.34 -0.34 0.68 0 0 Z " fill="#c7ae75" transform="translate(86,240)"/>
<path d="M0 0 C0.66 0 1.32 0 2 0 C2 0.66 2 1.32 2 2 C3.2375 2.12375 4.475 2.2475 5.75 2.375 C9.20672799 2.7206728 10.68890596 3.34445298 14 5 C8.39 4.67 2.78 4.34 -3 4 C-2.34 3.67 -1.68 3.34 -1 3 C-0.67 2.01 -0.34 1.02 0 0 Z " fill="#c6ab70" transform="translate(323,111)"/>
<path d="M0 0 C3.375 4.5 3.375 4.5 3.07421875 8.109375 C3.01943359 8.86347656 2.96464844 9.61757813 2.90820312 10.39453125 C2.83537109 11.17183594 2.76253906 11.94914062 2.6875 12.75 C2.62626953 13.54277344 2.56503906 14.33554687 2.50195312 15.15234375 C2.34920979 17.10275869 2.17654756 19.05159555 2 21 C1.01 20.67 0.02 20.34 -1 20 C-0.34 20 0.32 20 1 20 C0.67 13.4 0.34 6.8 0 0 Z " fill="#bb9c56" transform="translate(225,259)"/>
<path d="M0 0 C0.66 0.33 1.32 0.66 2 1 C1.34 2.98 0.68 4.96 0 7 C-3.3 6.67 -6.6 6.34 -10 6 C-6.23312136 4.11656068 -4.97041037 3.77942165 -1 4 C-0.67 2.68 -0.34 1.36 0 0 Z " fill="#a88943" transform="translate(300,124)"/>
<path d="M0 0 C2.35448165 2.55068845 2.98327924 3.71017358 3.1875 7.25 C3.125625 8.1575 3.06375 9.065 3 10 C0.9375 7.8125 0.9375 7.8125 -1 5 C-0.75 2.1875 -0.75 2.1875 0 0 Z M5 1 C7 2 7 2 7 2 Z " fill="#a68742" transform="translate(327,366)"/>
<path d="M0 0 C9.41002278 -0.18451025 9.41002278 -0.18451025 14 1 C13.67 2.32 13.34 3.64 13 5 C10.525 4.01 10.525 4.01 8 3 C8 2.34 8 1.68 8 1 C7.01 1.33 6.02 1.66 5 2 C2.3125 1.5625 2.3125 1.5625 0 1 C0 0.67 0 0.34 0 0 Z " fill="#af8e46" transform="translate(192,234)"/>
<path d="M0 0 C3 3.75 3 3.75 3 6 C1.68 5.67 0.36 5.34 -1 5 C-0.34 6.98 0.32 8.96 1 11 C-2 9 -2 9 -2.6875 5.875 C-2.8421875 4.451875 -2.8421875 4.451875 -3 3 C-2.01 3.33 -1.02 3.66 0 4 C0 2.68 0 1.36 0 0 Z " fill="#b59449" transform="translate(414,174)"/>
<path d="M0 0 C1.32 0.33 2.64 0.66 4 1 C4 1.66 4 2.32 4 3 C4.66 3 5.32 3 6 3 C6.625 4.8125 6.625 4.8125 7 7 C6.01 8.485 6.01 8.485 5 10 C3.33333333 6.66666667 1.66666667 3.33333333 0 0 Z " fill="#b6954a" transform="translate(200,108)"/>
<path d="M0 0 C5.48780488 -0.36585366 5.48780488 -0.36585366 7.75 1.25 C9.0672814 3.09419396 10.07360134 4.93341837 11 7 C8 7 8 7 5.5 4.625 C4.675 3.75875 3.85 2.8925 3 2 C2.01 1.34 1.02 0.68 0 0 Z " fill="#c9b17a" transform="translate(197,113)"/>
<path d="M0 0 C2.99332739 0.9977758 3.94766315 1.7522025 6 4 C5.34 5.98 4.68 7.96 4 10 C3.67 10 3.34 10 3 10 C2.67 8.02 2.34 6.04 2 4 C1.01 4.495 1.01 4.495 0 5 C0 3.35 0 1.7 0 0 Z " fill="#8d7339" transform="translate(181,364)"/>
<path d="M0 0 C-2.96178773 1.67110042 -5.37071192 2.32682752 -8.75 2.625 C-9.54921875 2.69976562 -10.3484375 2.77453125 -11.171875 2.8515625 C-11.77515625 2.90054687 -12.3784375 2.94953125 -13 3 C-9.04664037 -1.2504329 -5.53545836 -1.42340358 0 0 Z " fill="#b6954a" transform="translate(205,306)"/>
<path d="M0 0 C0.66 1.32 1.32 2.64 2 4 C1.34 4 0.68 4 0 4 C0 8.95 0 13.9 0 19 C-0.33 19 -0.66 19 -1 19 C-1.02690104 16.20826945 -1.04679053 13.41679652 -1.0625 10.625 C-1.07087891 9.8309375 -1.07925781 9.036875 -1.08789062 8.21875 C-1.11328125 2.2265625 -1.11328125 2.2265625 0 0 Z " fill="#b8984f" transform="translate(287,260)"/>
<path d="M0 0 C2.97 0.33 5.94 0.66 9 1 C8.67 2.32 8.34 3.64 8 5 C6.576875 4.2575 6.576875 4.2575 5.125 3.5 C2.27721834 1.85575631 2.27721834 1.85575631 0 2 C0 1.34 0 0.68 0 0 Z " fill="#977b3d" transform="translate(326,235)"/>
<path d="M0 0 C4.455 1.98 4.455 1.98 9 4 C7.02 4.99 7.02 4.99 5 6 C2.25 4.8125 2.25 4.8125 0 3 C0 2.01 0 1.02 0 0 Z " fill="#ab8b44" transform="translate(119,385)"/>
<path d="M0 0 C7.26 0 14.52 0 22 0 C22 0.33 22 0.66 22 1 C14.74 1 7.48 1 0 1 C0 0.67 0 0.34 0 0 Z " fill="#a68743" transform="translate(245,125)"/>
<path d="M0 0 C3.375 0.3125 3.375 0.3125 7 1 C7.66 1.99 8.32 2.98 9 4 C8.67 4.99 8.34 5.98 8 7 C7.34 6.34 6.68 5.68 6 5 C5.154375 4.505 4.30875 4.01 3.4375 3.5 C1 2 1 2 0 0 Z " fill="#ab8c45" transform="translate(75,361)"/>
<path d="M0 0 C0.99 0.495 0.99 0.495 2 1 C1.67 1.99 1.34 2.98 1 4 C1.66 4 2.32 4 3 4 C3.33 5.98 3.66 7.96 4 10 C2.68 9.34 1.36 8.68 0 8 C0 5.36 0 2.72 0 0 Z " fill="#ad8d46" transform="translate(438,242)"/>
<path d="M0 0 C0.66 0 1.32 0 2 0 C3 3 3 3 1.5625 6.1875 C0.7890625 7.5796875 0.7890625 7.5796875 0 9 C-0.33 8.34 -0.66 7.68 -1 7 C-1.66 7 -2.32 7 -3 7 C-1.125 2.25 -1.125 2.25 0 0 Z " fill="#c2a668" transform="translate(307,111)"/>
<path d="M0 0 C1.48206495 0.254496 2.96068615 0.52911762 4.4375 0.8125 C5.67306641 1.03873047 5.67306641 1.03873047 6.93359375 1.26953125 C7.95646484 1.63111328 7.95646484 1.63111328 9 2 C9.33 2.99 9.66 3.98 10 5 C7.36 4.34 4.72 3.68 2 3 C2 2.34 2 1.68 2 1 C1.34 0.67 0.68 0.34 0 0 Z " fill="#a58642" transform="translate(189,359)"/>
<path d="M0 0 C0.75 1.625 0.75 1.625 1 4 C-0.9375 7.25 -0.9375 7.25 -3 10 C-3.625 8.1875 -3.625 8.1875 -4 6 C-2.66666667 4 -1.33333333 2 0 0 Z " fill="#cbb37e" transform="translate(85,212)"/>
<path d="M0 0 C0.82638376 2.89234315 1 4.88742431 1 8 C-0.65 7.67 -2.3 7.34 -4 7 C-3.39816251 4.97954558 -2.72693904 2.97888961 -2 1 C-1.34 0.67 -0.68 0.34 0 0 Z " fill="#ba9a52" transform="translate(99,175)"/>
<path d="M0 0 C0.66 0.33 1.32 0.66 2 1 C1.67 1.66 1.34 2.32 1 3 C-1.3431213 2.74438677 -3.67843403 2.40729228 -6 2 C-6.33 1.34 -6.66 0.68 -7 0 C-4.30919898 -1.34540051 -2.86443593 -0.71610898 0 0 Z " fill="#bfa15f" transform="translate(167,359)"/>
<path d="M0 0 C1.32 0 2.64 0 4 0 C3.34 2.64 2.68 5.28 2 8 C1.67 8 1.34 8 1 8 C0.67 5.36 0.34 2.72 0 0 Z " fill="#c3a768" transform="translate(76,229)"/>
<path d="M0 0 C0.66 0.33 1.32 0.66 2 1 C1.34 3.31 0.68 5.62 0 8 C-1.5625 6.75 -1.5625 6.75 -3 5 C-2.8125 2.875 -2.8125 2.875 -2 1 C-1.34 0.67 -0.68 0.34 0 0 Z " fill="#bfa15e" transform="translate(94,186)"/>
<path d="M0 0 C0.66 0.66 1.32 1.32 2 2 C1.40138258 4.35171131 0.73075648 6.6859378 0 9 C-0.99 9.495 -0.99 9.495 -2 10 C-2.25 3.375 -2.25 3.375 0 0 Z " fill="#bfa15f" transform="translate(110,152)"/>
<path d="M0 0 C2.475 0.495 2.475 0.495 5 1 C5.33 1.99 5.66 2.98 6 4 C5.01 5.485 5.01 5.485 4 7 C4 6.01 4 5.02 4 4 C3.01 3.67 2.02 3.34 1 3 C0.67 2.01 0.34 1.02 0 0 Z " fill="#c5aa6f" transform="translate(392,142)"/>
<path d="M0 0 C4.455 0.99 4.455 0.99 9 2 C9 2.33 9 2.66 9 3 C5.33694766 3.74926071 2.57644848 4.2380014 -1 3 C-0.67 2.01 -0.34 1.02 0 0 Z " fill="#a38542" transform="translate(213,127)"/>
<path d="M0 0 C0 0.66 0 1.32 0 2 C0.66 2.33 1.32 2.66 2 3 C-0.97 2.67 -3.94 2.34 -7 2 C-7 1.34 -7 0.68 -7 0 C-3.86650268 -1.04449911 -3.01031744 -0.93423645 0 0 Z " fill="#c0a361" transform="translate(174,116)"/>
<path d="M0 0 C1.134375 0.020625 2.26875 0.04125 3.4375 0.0625 C3.4375 0.3925 3.4375 0.7225 3.4375 1.0625 C2.07625 1.4646875 2.07625 1.4646875 0.6875 1.875 C-2.27721963 2.95826294 -4.1794754 4.04609457 -6.5625 6.0625 C-4.25951087 0.07472826 -4.25951087 0.07472826 0 0 Z " fill="#c8af77" transform="translate(313.5625,112.9375)"/>
<path d="M0 0 C2.97 0.33 5.94 0.66 9 1 C8 3 8 3 6.1875 3.75 C3.50171361 4.05694702 2.2747813 3.38111722 0 2 C0 1.34 0 0.68 0 0 Z " fill="#8f753a" transform="translate(186,305)"/>
<path d="M0 0 C0.33 0 0.66 0 1 0 C1 3.63 1 7.26 1 11 C0.67 11 0.34 11 0 11 C0 7.37 0 3.74 0 0 Z " fill="#967a3c" transform="translate(161,266)"/>
<path d="M0 0 C2.31 0 4.62 0 7 0 C7 0.33 7 0.66 7 1 C4.69 1 2.38 1 0 1 C0 0.67 0 0.34 0 0 Z " fill="#997c3d" transform="translate(229,126)"/>
<path d="M0 0 C1.98 0 3.96 0 6 0 C6 0.33 6 0.66 6 1 C4.02 1 2.04 1 0 1 C0 0.67 0 0.34 0 0 Z " fill="#897037" transform="translate(286,127)"/>
<path d="M0 0 C1.98 0 3.96 0 6 0 C6 0.33 6 0.66 6 1 C4.02 1 2.04 1 0 1 C0 0.67 0 0.34 0 0 Z " fill="#977b3d" transform="translate(277,126)"/>
<path d="M0 0 C0.33 0 0.66 0 1 0 C1 1.65 1 3.3 1 5 C0.67 5 0.34 5 0 5 C0 3.35 0 1.7 0 0 Z " fill="#715c2e" transform="translate(224,265)"/>
<path d="M0 0 C1.65 0 3.3 0 5 0 C5 0.33 5 0.66 5 1 C3.35 1 1.7 1 0 1 C0 0.67 0 0.34 0 0 Z " fill="#94793c" transform="translate(221,127)"/>
<path d="M0 0 C1 4 1 4 1 4 Z " fill="#90753a" transform="translate(224,273)"/>
<path d="M0 0 C1 4 1 4 1 4 Z " fill="#7b6431" transform="translate(67,266)"/>
<path d="M0 0 C1 4 1 4 1 4 Z " fill="#7b6431" transform="translate(444,262)"/>
<path d="M0 0 C3 1 3 1 3 1 Z " fill="#897037" transform="translate(204,365)"/>
<path d="M0 0 C3 1 3 1 3 1 Z " fill="#6c582c" transform="translate(310,364)"/>
<path d="M0 0 C3 1 3 1 3 1 Z " fill="#6c582c" transform="translate(200,364)"/>
<path d="" fill="#897037" transform="translate(0,0)"/>
<path d="" fill="#897037" transform="translate(0,0)"/>
<path d="" fill="#897037" transform="translate(0,0)"/>
<path d="" fill="#a68743" transform="translate(0,0)"/>
<path d="M0 0 C2 1 2 1 2 1 Z " fill="#504120" transform="translate(350,404)"/>
<path d="M0 0 C2 1 2 1 2 1 Z " fill="#7b6431" transform="translate(143,398)"/>
<path d="M0 0 C2 1 2 1 2 1 Z " fill="#7b6431" transform="translate(370,397)"/>
<path d="M0 0 C2 1 2 1 2 1 Z " fill="#a68743" transform="translate(306,365)"/>
<path d="M0 0 C2 1 2 1 2 1 Z " fill="#7b6431" transform="translate(334,362)"/>
<path d="M0 0 C2 1 2 1 2 1 Z " fill="#7b6431" transform="translate(183,359)"/>
<path d="M0 0 C2 1 2 1 2 1 Z " fill="#a68743" transform="translate(180,358)"/>
<path d="M0 0 C2 1 2 1 2 1 Z " fill="#7b6431" transform="translate(165,352)"/>
<path d="M0 0 C2 1 2 1 2 1 Z " fill="#7b6431" transform="translate(348,351)"/>
<path d="M0 0 C2 1 2 1 2 1 Z " fill="#7b6431" transform="translate(203,304)"/>
<path d="M0 0 C2 1 2 1 2 1 Z " fill="#7b6431" transform="translate(182,304)"/>
<path d="M0 0 C2 1 2 1 2 1 Z " fill="#504120" transform="translate(306,303)"/>
<path d="M0 0 C2 1 2 1 2 1 Z " fill="#504120" transform="translate(205,303)"/>
<path d="" fill="#7b6431" transform="translate(0,0)"/>
<path d="" fill="#a68743" transform="translate(0,0)"/>
<path d="" fill="#a68743" transform="translate(0,0)"/>
<path d="" fill="#a68743" transform="translate(0,0)"/>
<path d="" fill="#a68743" transform="translate(0,0)"/>
<path d="" fill="#a68743" transform="translate(0,0)"/>
<path d="" fill="#a68743" transform="translate(0,0)"/>
<path d="" fill="#a68743" transform="translate(0,0)"/>
<path d="" fill="#a68743" transform="translate(0,0)"/>
<path d="" fill="#a68743" transform="translate(0,0)"/>
<path d="" fill="#a68743" transform="translate(0,0)"/>
<path d="" fill="#7b6431" transform="translate(0,0)"/>
<path d="" fill="#a68743" transform="translate(0,0)"/>
<path d="" fill="#504120" transform="translate(0,0)"/>
<path d="M0 0 C2 1 2 1 2 1 Z " fill="#a68743" transform="translate(137,126)"/>
<path d="M0 0 C2 1 2 1 2 1 Z " fill="#7b6431" transform="translate(360,121)"/>
<path d="M0 0 C2 1 2 1 2 1 Z " fill="#a68743" transform="translate(357,120)"/>
<path d="M0 0 C2 1 2 1 2 1 Z " fill="#a68743" transform="translate(156,119)"/>
<path d="M0 0 C2 1 2 1 2 1 Z " fill="#a68743" transform="translate(337,114)"/>
<path d="M0 0 C2 1 2 1 2 1 Z " fill="#a68743" transform="translate(173,114)"/>
<path d="M0 0 C2 1 2 1 2 1 Z " fill="#a68743" transform="translate(334,113)"/>
<path d="M0 0 C2 1 2 1 2 1 Z " fill="#a68743" transform="translate(177,113)"/>
<path d="" fill="#a68743" transform="translate(0,0)"/>
<path d="" fill="#504120" transform="translate(0,0)"/>
<path d="" fill="#504120" transform="translate(0,0)"/>
<path d="" fill="#504120" transform="translate(0,0)"/>
<path d="" fill="#504120" transform="translate(0,0)"/>
<path d="" fill="#504120" transform="translate(0,0)"/>
<path d="" fill="#a68743" transform="translate(0,0)"/>
<path d="" fill="#a68743" transform="translate(0,0)"/>
<path d="" fill="#504120" transform="translate(0,0)"/>
<path d="" fill="#a68743" transform="translate(0,0)"/>
<path d="" fill="#504120" transform="translate(0,0)"/>
<path d="" fill="#504120" transform="translate(0,0)"/>
<path d="" fill="#a68743" transform="translate(0,0)"/>
<path d="" fill="#504120" transform="translate(0,0)"/>
<path d="" fill="#504120" transform="translate(0,0)"/>
<path d="" fill="#504120" transform="translate(0,0)"/>
<path d="" fill="#504120" transform="translate(0,0)"/>
<path d="" fill="#504120" transform="translate(0,0)"/>
<path d="" fill="#504120" transform="translate(0,0)"/>
<path d="" fill="#504120" transform="translate(0,0)"/>
<path d="" fill="#a68743" transform="translate(0,0)"/>
<path d="" fill="#a68743" transform="translate(0,0)"/>
<path d="" fill="#504120" transform="translate(0,0)"/>
<path d="" fill="#504120" transform="translate(0,0)"/>
<path d="" fill="#a68743" transform="translate(0,0)"/>
<path d="" fill="#504120" transform="translate(0,0)"/>
<path d="" fill="#a68743" transform="translate(0,0)"/>
<path d="" fill="#504120" transform="translate(0,0)"/>
<path d="" fill="#a68743" transform="translate(0,0)"/>
<path d="" fill="#504120" transform="translate(0,0)"/>
<path d="" fill="#a68743" transform="translate(0,0)"/>
<path d="" fill="#504120" transform="translate(0,0)"/>
<path d="" fill="#504120" transform="translate(0,0)"/>
<path d="" fill="#504120" transform="translate(0,0)"/>
<path d="" fill="#a68743" transform="translate(0,0)"/>
<path d="" fill="#a68743" transform="translate(0,0)"/>
<path d="" fill="#504120" transform="translate(0,0)"/>
<path d="" fill="#a68743" transform="translate(0,0)"/>
<path d="" fill="#a68743" transform="translate(0,0)"/>
<path d="" fill="#a68743" transform="translate(0,0)"/>
<path d="" fill="#a68743" transform="translate(0,0)"/>
<path d="" fill="#a68743" transform="translate(0,0)"/>
<path d="" fill="#504120" transform="translate(0,0)"/>
<path d="" fill="#504120" transform="translate(0,0)"/>
<path d="" fill="#a68743" transform="translate(0,0)"/>
<path d="" fill="#504120" transform="translate(0,0)"/>
<path d="" fill="#a68743" transform="translate(0,0)"/>
<path d="" fill="#504120" transform="translate(0,0)"/>
<path d="" fill="#a68743" transform="translate(0,0)"/>
<path d="" fill="#a68743" transform="translate(0,0)"/>
<path d="" fill="#a68743" transform="translate(0,0)"/>
<path d="" fill="#a68743" transform="translate(0,0)"/>
<path d="" fill="#504120" transform="translate(0,0)"/>
<path d="" fill="#504120" transform="translate(0,0)"/>
<path d="" fill="#a68743" transform="translate(0,0)"/>
<path d="" fill="#a68743" transform="translate(0,0)"/>
<path d="" fill="#504120" transform="translate(0,0)"/>
<path d="" fill="#504120" transform="translate(0,0)"/>
<path d="" fill="#a68743" transform="translate(0,0)"/>
<path d="" fill="#a68743" transform="translate(0,0)"/>
<path d="" fill="#504120" transform="translate(0,0)"/>
<path d="" fill="#a68743" transform="translate(0,0)"/>
<path d="" fill="#a68743" transform="translate(0,0)"/>
<path d="" fill="#a68743" transform="translate(0,0)"/>
<path d="" fill="#a68743" transform="translate(0,0)"/>
<path d="" fill="#504120" transform="translate(0,0)"/>
<path d="" fill="#a68743" transform="translate(0,0)"/>
<path d="" fill="#a68743" transform="translate(0,0)"/>
<path d="" fill="#a68743" transform="translate(0,0)"/>
<path d="" fill="#a68743" transform="translate(0,0)"/>
<path d="" fill="#504120" transform="translate(0,0)"/>
<path d="" fill="#a68743" transform="translate(0,0)"/>
<path d="" fill="#a68743" transform="translate(0,0)"/>
<path d="" fill="#504120" transform="translate(0,0)"/>
<path d="" fill="#504120" transform="translate(0,0)"/>
<path d="" fill="#a68743" transform="translate(0,0)"/>
<path d="" fill="#a68743" transform="translate(0,0)"/>
<path d="" fill="#504120" transform="translate(0,0)"/>
<path d="" fill="#504120" transform="translate(0,0)"/>
<path d="" fill="#a68743" transform="translate(0,0)"/>
<path d="" fill="#504120" transform="translate(0,0)"/>
<path d="" fill="#a68743" transform="translate(0,0)"/>
<path d="" fill="#a68743" transform="translate(0,0)"/>
<path d="" fill="#a68743" transform="translate(0,0)"/>
<path d="" fill="#a68743" transform="translate(0,0)"/>
<path d="" fill="#a68743" transform="translate(0,0)"/>
<path d="" fill="#a68743" transform="translate(0,0)"/>
<path d="" fill="#a68743" transform="translate(0,0)"/>
<path d="" fill="#a68743" transform="translate(0,0)"/>
<path d="" fill="#a68743" transform="translate(0,0)"/>
<path d="" fill="#a68743" transform="translate(0,0)"/>
<path d="" fill="#a68743" transform="translate(0,0)"/>
<path d="" fill="#a68743" transform="translate(0,0)"/>
<path d="" fill="#a68743" transform="translate(0,0)"/>
<path d="" fill="#a68743" transform="translate(0,0)"/>
<path d="" fill="#a68743" transform="translate(0,0)"/>
<path d="" fill="#504120" transform="translate(0,0)"/>
<path d="" fill="#a68743" transform="translate(0,0)"/>
<path d="" fill="#a68743" transform="translate(0,0)"/>
<path d="" fill="#a68743" transform="translate(0,0)"/>
<path d="" fill="#a68743" transform="translate(0,0)"/>
<path d="" fill="#a68743" transform="translate(0,0)"/>
<path d="" fill="#504120" transform="translate(0,0)"/>
<path d="" fill="#a68743" transform="translate(0,0)"/>
<path d="" fill="#a68743" transform="translate(0,0)"/>
<path d="" fill="#a68743" transform="translate(0,0)"/>
<path d="" fill="#a68743" transform="translate(0,0)"/>
<path d="" fill="#a68743" transform="translate(0,0)"/>
<path d="" fill="#a68743" transform="translate(0,0)"/>
<path d="" fill="#a68743" transform="translate(0,0)"/>
<path d="" fill="#a68743" transform="translate(0,0)"/>
<path d="" fill="#a68743" transform="translate(0,0)"/>
<path d="" fill="#a68743" transform="translate(0,0)"/>
<path d="" fill="#a68743" transform="translate(0,0)"/>
<path d="" fill="#a68743" transform="translate(0,0)"/>
<path d="" fill="#a68743" transform="translate(0,0)"/>
</svg>
