<?xml version="1.0" encoding="UTF-8"?>
<svg version="1.1" xmlns="http://www.w3.org/2000/svg" width="32" height="32">
<path d="M0 0 C1.4540625 0.0309375 1.4540625 0.0309375 2.9375 0.0625 C5.11107444 3.85024694 7.2751772 7.64332029 9.4375 11.4375 C10.05753906 12.51773437 10.67757813 13.59796875 11.31640625 14.7109375 C11.90292969 15.7421875 12.48945313 16.7734375 13.09375 17.8359375 C13.63837891 18.78903809 14.18300781 19.74213867 14.74414062 20.72412109 C15.9375 23.0625 15.9375 23.0625 15.9375 25.0625 C13.6275 25.0625 11.3175 25.0625 8.9375 25.0625 C7.59891476 22.77375827 6.26648986 20.48180344 4.9375 18.1875 C4.5559375 17.53652344 4.174375 16.88554687 3.78125 16.21484375 C0.9375 11.2890625 0.9375 11.2890625 0.9375 9.0625 C0.2775 9.0625 -0.3825 9.0625 -1.0625 9.0625 C-1.32804688 9.76761719 -1.59359375 10.47273437 -1.8671875 11.19921875 C-3.12748967 14.21817786 -4.60207994 17.01435076 -6.1875 19.875 C-6.72632813 20.85082031 -7.26515625 21.82664062 -7.8203125 22.83203125 C-8.23023438 23.56808594 -8.64015625 24.30414062 -9.0625 25.0625 C-11.3725 25.0625 -13.6825 25.0625 -16.0625 25.0625 C-14.78390508 21.74803076 -13.37004425 18.59571765 -11.71484375 15.453125 C-11.27462891 14.61652344 -10.83441406 13.77992187 -10.38085938 12.91796875 C-9.92517578 12.05816406 -9.46949219 11.19835937 -9 10.3125 C-8.54044922 9.43722656 -8.08089844 8.56195313 -7.60742188 7.66015625 C-3.60238262 0.07351801 -3.60238262 0.07351801 0 0 Z " fill="#BEA15E" transform="translate(16.0625,2.9375)"/>
</svg>
