<?xml version="1.0" encoding="UTF-8"?>
<svg version="1.1" xmlns="http://www.w3.org/2000/svg" width="128" height="128">
<path d="M0 0 C1.4556234 8.20761147 1.4556234 8.20761147 -0.4375 11.5 C-0.953125 11.995 -1.46875 12.49 -2 13 C-2 13.33 -2 13.66 -2 14 C-3.71884399 14.03758423 -3.71884399 14.03758423 -5.47241211 14.07592773 C-9.70853598 14.16983106 -13.94448928 14.27009275 -18.18041992 14.37231445 C-20.01664247 14.4157282 -21.85290708 14.45739839 -23.68920898 14.49731445 C-26.32288311 14.55486169 -28.95634421 14.61859998 -31.58984375 14.68359375 C-32.41588608 14.70030624 -33.24192841 14.71701874 -34.09300232 14.73423767 C-37.85476753 14.47807433 -37.85476753 14.47807433 -41 16 C-41.09413687 18.05556661 -41.11742998 20.11440181 -41.11352539 22.17211914 C-41.11367142 22.81600082 -41.11381744 23.45988251 -41.1139679 24.12327576 C-41.11326885 26.26060303 -41.10547691 28.39784413 -41.09765625 30.53515625 C-41.09579204 32.01346285 -41.09436815 33.49177007 -41.09336853 34.97007751 C-41.08954359 38.86798802 -41.07971352 42.76586149 -41.06866455 46.66375732 C-41.05844992 50.63846333 -41.0538708 54.61317529 -41.04882812 58.58789062 C-41.03809122 66.391944 -41.02101509 74.19596682 -41 82 C-37.60322215 83.13225928 -35.01479625 83.12701659 -31.43310547 83.12939453 C-30.43999359 83.13202301 -30.43999359 83.13202301 -29.42681885 83.13470459 C-27.24024835 83.13910311 -25.05375881 83.13619283 -22.8671875 83.1328125 C-21.34929387 83.13348595 -19.83140034 83.13445633 -18.31350708 83.13571167 C-15.13428723 83.1371858 -11.95509549 83.13504263 -8.77587891 83.13037109 C-4.69222728 83.12466425 -0.60864123 83.12796063 3.47500801 83.13394356 C6.60786437 83.13754858 9.74070504 83.13641103 12.87356186 83.13381577 C14.37992231 83.13314684 15.88628417 83.13397374 17.39264297 83.13629532 C19.49243218 83.13882194 21.59211342 83.13498162 23.69189453 83.12939453 C24.888638 83.12859894 26.08538147 83.12780334 27.31838989 83.12698364 C29.91905353 83.30523607 29.91905353 83.30523607 31 82 C31.12309454 79.39405439 31.18610425 76.8105134 31.2109375 74.203125 C31.23901792 72.58853173 31.26768246 70.97394854 31.296875 69.359375 C31.33806921 66.8072958 31.37494407 64.25540223 31.40136719 61.703125 C31.42904702 59.24439269 31.47493175 56.78652303 31.5234375 54.328125 C31.52669037 53.56961243 31.52994324 52.81109985 31.53329468 52.02960205 C31.63747265 47.51986764 32.29723635 44.63899165 35 41 C37.31 41.33 39.62 41.66 42 42 C43.84615577 46.70840923 44.30720821 50.95763769 44.30078125 55.9609375 C44.30506638 56.710336 44.3093515 57.4597345 44.31376648 58.23184204 C44.31948372 59.81015009 44.32002935 61.38848448 44.31567383 62.96679688 C44.31251826 65.36114224 44.33598885 67.75424491 44.36132812 70.1484375 C44.36360209 71.69010263 44.36430416 73.23177104 44.36328125 74.7734375 C44.372491 75.47890717 44.38170074 76.18437683 44.39118958 76.91122437 C44.32977045 83.6238333 42.55548925 89.87507459 38 95 C37.63156982 95.5217984 37.26313965 96.0435968 36.88354492 96.58120728 C33.96497724 98.77963777 30.8741195 98.41728734 27.36328125 98.38818359 C26.5873764 98.39344055 25.81147156 98.39869751 25.01205444 98.40411377 C22.44533198 98.41732584 19.87922886 98.40857166 17.3125 98.3984375 C15.5303536 98.40045789 13.74820801 98.40336904 11.96606445 98.40713501 C8.23022595 98.41155999 4.49460257 98.40512176 0.75878906 98.39111328 C-4.03329084 98.37402124 -8.8248667 98.3838615 -13.6169281 98.40183067 C-17.29719856 98.41266385 -20.97734925 98.40922433 -24.65762329 98.4014473 C-26.42469339 98.39944399 -28.19177432 98.40190912 -29.95883179 98.40888596 C-32.42727524 98.41649285 -34.89489895 98.40490753 -37.36328125 98.38818359 C-38.09584137 98.39425629 -38.82840149 98.40032898 -39.5831604 98.40658569 C-44.53625236 98.34431901 -44.53625236 98.34431901 -46.89282227 96.59463501 C-47.25819092 96.06840546 -47.62355957 95.5421759 -48 95 C-48.44601563 94.37222656 -48.89203125 93.74445313 -49.3515625 93.09765625 C-49.98191406 92.09025391 -49.98191406 92.09025391 -50.625 91.0625 C-51.26308594 90.05896484 -51.26308594 90.05896484 -51.9140625 89.03515625 C-54.11521551 84.90997381 -54.13422691 81.06078068 -54.16113281 76.43066406 C-54.16858017 75.45419922 -54.16858017 75.45419922 -54.17617798 74.45800781 C-54.19074729 72.31053598 -54.19759363 70.16313808 -54.203125 68.015625 C-54.20888176 66.51593017 -54.21463942 65.01623535 -54.22039795 63.51654053 C-54.23089377 60.37267719 -54.23674538 57.22883932 -54.24023438 54.08496094 C-54.2457092 50.07252456 -54.26972128 46.06042921 -54.29820633 42.04809952 C-54.31690816 38.94927006 -54.32204235 35.85052142 -54.32357025 32.75164032 C-54.32658147 31.27337535 -54.33455782 29.79511128 -54.34775543 28.31690216 C-54.49702541 10.30915359 -54.49702541 10.30915359 -48 3 C-47.55740341 2.47944031 -47.11480682 1.95888062 -46.65879822 1.42254639 C-44.6171644 -0.32831082 -43.61855078 -0.39533087 -40.95922852 -0.44824219 C-39.74765831 -0.48277496 -39.74765831 -0.48277496 -38.51161194 -0.51800537 C-37.20842262 -0.53229584 -37.20842262 -0.53229584 -35.87890625 -0.546875 C-34.98259995 -0.56719788 -34.08629364 -0.58752075 -33.16282654 -0.60845947 C-31.26745691 -0.64866475 -29.37192684 -0.68183132 -27.47631836 -0.70849609 C-24.57679233 -0.74979642 -21.6783442 -0.81243128 -18.77929688 -0.87890625 C-16.93752437 -0.91531691 -15.09572738 -0.95051355 -13.25390625 -0.984375 C-12.3871376 -1.0019989 -11.52036896 -1.0196228 -10.62733459 -1.03778076 C-9.81646896 -1.04819397 -9.00560333 -1.05860718 -8.17016602 -1.06933594 C-7.45973648 -1.08027283 -6.74930695 -1.09120972 -6.01734924 -1.10247803 C-3.89763069 -0.99479981 -2.03705274 -0.58049865 0 0 Z M36 42 C40 43 40 43 40 43 Z M-38 85 C-38 85.33 -38 85.66 -38 86 C-16.22 86 5.56 86 28 86 C28 85.67 28 85.34 28 85 C6.22 85 -15.56 85 -38 85 Z " fill="#A88E54" transform="translate(69,15)"/>
<path d="M0 0 C1.62711914 -0.04253906 1.62711914 -0.04253906 3.28710938 -0.0859375 C7.9567861 -0.09741796 11.15223276 -0.00545824 15.27734375 2.28515625 C18.02930105 7.24108811 17.78771404 11.86225864 17.6875 17.4375 C17.70683594 18.50935547 17.72617188 19.58121094 17.74609375 20.68554688 C17.69189345 29.43889559 17.69189345 29.43889559 14.7109375 33.19140625 C12.0625 35.5 12.0625 35.5 9.0625 36.5 C5.7911255 33.37085918 4.94903255 31.36532554 4.5 26.875 C4.41621094 26.05773437 4.33242187 25.24046875 4.24609375 24.3984375 C4.18550781 23.77195312 4.12492187 23.14546875 4.0625 22.5 C-0.34044182 26.85356019 -4.73681717 31.21360606 -9.12719727 35.57983398 C-10.6221468 37.06471652 -12.11888517 38.54780032 -13.61743164 40.02905273 C-15.76920109 42.15660499 -17.91448674 44.29051061 -20.05859375 46.42578125 C-21.06798256 47.4196862 -21.06798256 47.4196862 -22.09776306 48.43367004 C-23.02861473 49.36429512 -23.02861473 49.36429512 -23.97827148 50.3137207 C-24.52676254 50.85777054 -25.0752536 51.40182037 -25.6403656 51.96235657 C-27.17131274 53.58477311 -27.17131274 53.58477311 -27.9375 56.5 C-30.5775 56.5 -33.2175 56.5 -35.9375 56.5 C-38.00165199 52.37169602 -38.24843304 49.93426348 -36.9375 45.5 C-35.04039809 42.94109515 -32.79689351 40.80042705 -30.49609375 38.60546875 C-29.85382339 37.97264481 -29.21155304 37.33982086 -28.54981995 36.68782043 C-26.50304423 34.67555955 -24.43985247 32.68119211 -22.375 30.6875 C-20.31017855 28.67255462 -18.24884951 26.65412572 -16.18946838 24.63362122 C-14.90802193 23.37869695 -13.62272652 22.1276893 -12.33335876 20.88090515 C-10.84988124 19.43908708 -9.39087984 17.97215216 -7.9375 16.5 C-7.9375 16.17 -7.9375 15.84 -7.9375 15.5 C-9.05125 15.273125 -10.165 15.04625 -11.3125 14.8125 C-14.9375 13.5 -14.9375 13.5 -16.4375 11.1875 C-17.00288256 8.14856875 -17.0072746 6.40367392 -15.9375 3.5 C-11.30725268 -0.87620069 -6.02540783 -0.01426976 0 0 Z M-12.9375 12.5 C-12.9375 12.83 -12.9375 13.16 -12.9375 13.5 C-10.6275 13.5 -8.3175 13.5 -5.9375 13.5 C-5.9375 13.17 -5.9375 12.84 -5.9375 12.5 C-8.2475 12.5 -10.5575 12.5 -12.9375 12.5 Z " fill="#A88E54" transform="translate(95.9375,14.5)"/>
<path d="M0 0 C22.44 0 44.88 0 68 0 C68 0.33 68 0.66 68 1 C45.56 1 23.12 1 0 1 C0 0.67 0 0.34 0 0 Z " fill="#231F20" transform="translate(30,114)"/>
<path d="M0 0 C0.33 0 0.66 0 1 0 C1 22.44 1 44.88 1 68 C0.67 68 0.34 68 0 68 C0 45.56 0 23.12 0 0 Z " fill="#221F20" transform="translate(13,30)"/>
<path d="M0 0 C0.33 0 0.66 0 1 0 C1 21.78 1 43.56 1 66 C0.67 66 0.34 66 0 66 C0 44.22 0 22.44 0 0 Z " fill="#231F20" transform="translate(28,31)"/>
<path d="M0 0 C0.33 0 0.66 0 1 0 C1 11.88 1 23.76 1 36 C0.67 36 0.34 36 0 36 C0 24.12 0 12.24 0 0 Z " fill="#231F20" transform="translate(99,61)"/>
<path d="M0 0 C0.33 0 0.66 0 1 0 C1 11.55 1 23.1 1 35 C0.67 35 0.34 35 0 35 C0 23.45 0 11.9 0 0 Z " fill="#231F20" transform="translate(114,63)"/>
<path d="M0 0 C11.55 0 23.1 0 35 0 C35 0.33 35 0.66 35 1 C23.45 1 11.9 1 0 1 C0 0.67 0 0.34 0 0 Z " fill="#231F20" transform="translate(30,13)"/>
<path d="M0 0 C0.33 0 0.66 0 1 0 C1 7.92 1 15.84 1 24 C0.67 24 0.34 24 0 24 C0 16.08 0 8.16 0 0 Z " fill="#231F20" transform="translate(114,20)"/>
<path d="M0 0 C7.92 0 15.84 0 24 0 C24 0.33 24 0.66 24 1 C16.08 1 8.16 1 0 1 C0 0.67 0 0.34 0 0 Z " fill="#231F20" transform="translate(84,13)"/>
<path d="M0 0 C0.33 0 0.66 0 1 0 C1 2.64 1 5.28 1 8 C0.67 8 0.34 8 0 8 C-0.38063221 5.6739143 -0.71269945 3.33944736 -1 1 C-0.67 0.67 -0.34 0.34 0 0 Z " fill="#231E20" transform="translate(99,38)"/>
<path d="M0 0 C0.33 0 0.66 0 1 0 C1 1.65 1 3.3 1 5 C0.67 5 0.34 5 0 5 C0 3.35 0 1.7 0 0 Z " fill="#231F20" transform="translate(71,19)"/>
<path d="M0 0 C4 1 4 1 4 1 Z " fill="#231E20" transform="translate(98,113)"/>
<path d="M0 0 C4 1 4 1 4 1 Z " fill="#231F20" transform="translate(26,113)"/>
<path d="M0 0 C1 4 1 4 1 4 Z " fill="#231E20" transform="translate(113,98)"/>
<path d="M0 0 C1 4 1 4 1 4 Z " fill="#231F1F" transform="translate(14,98)"/>
<path d="M0 0 C4 1 4 1 4 1 Z " fill="#231F20" transform="translate(62,71)"/>
<path d="M0 0 C1 4 1 4 1 4 Z " fill="#231F20" transform="translate(56,62)"/>
<path d="M0 0 C1 4 1 4 1 4 Z " fill="#231F1F" transform="translate(14,26)"/>
<path d="M0 0 C4 1 4 1 4 1 Z " fill="#231F20" transform="translate(26,14)"/>
<path d="" fill="#231F20" transform="translate(0,0)"/>
<path d="" fill="#231F20" transform="translate(0,0)"/>
<path d="" fill="#231F20" transform="translate(0,0)"/>
<path d="" fill="#231F20" transform="translate(0,0)"/>
<path d="" fill="#231F20" transform="translate(0,0)"/>
<path d="" fill="#231F20" transform="translate(0,0)"/>
<path d="" fill="#231E20" transform="translate(0,0)"/>
<path d="" fill="#231F20" transform="translate(0,0)"/>
<path d="M0 0 C2 1 2 1 2 1 Z " fill="#231F20" transform="translate(108,49)"/>
<path d="" fill="#231F20" transform="translate(0,0)"/>
<path d="" fill="#231F20" transform="translate(0,0)"/>
<path d="" fill="#231F20" transform="translate(0,0)"/>
<path d="" fill="#231F20" transform="translate(0,0)"/>
<path d="" fill="#231F20" transform="translate(0,0)"/>
<path d="" fill="#231F20" transform="translate(0,0)"/>
<path d="" fill="#231F20" transform="translate(0,0)"/>
<path d="M0 0 C2 1 2 1 2 1 Z " fill="#231F20" transform="translate(108,14)"/>
<path d="M0 0 C2 1 2 1 2 1 Z " fill="#231F20" transform="translate(82,14)"/>
<path d="" fill="#231F20" transform="translate(0,0)"/>
<path d="" fill="#231F20" transform="translate(0,0)"/>
<path d="" fill="#231F20" transform="translate(0,0)"/>
<path d="" fill="#231F20" transform="translate(0,0)"/>
<path d="" fill="#231F20" transform="translate(0,0)"/>
<path d="" fill="#231F20" transform="translate(0,0)"/>
<path d="" fill="#231F20" transform="translate(0,0)"/>
<path d="" fill="#231F20" transform="translate(0,0)"/>
<path d="" fill="#231F20" transform="translate(0,0)"/>
<path d="" fill="#231F20" transform="translate(0,0)"/>
<path d="" fill="#231F20" transform="translate(0,0)"/>
<path d="" fill="#231F20" transform="translate(0,0)"/>
<path d="" fill="#231F20" transform="translate(0,0)"/>
<path d="" fill="#231F20" transform="translate(0,0)"/>
<path d="" fill="#231F20" transform="translate(0,0)"/>
<path d="" fill="#231F20" transform="translate(0,0)"/>
<path d="" fill="#231F20" transform="translate(0,0)"/>
<path d="" fill="#232021" transform="translate(0,0)"/>
<path d="" fill="#231F20" transform="translate(0,0)"/>
<path d="" fill="#231F20" transform="translate(0,0)"/>
<path d="" fill="#231F20" transform="translate(0,0)"/>
<path d="" fill="#231F20" transform="translate(0,0)"/>
<path d="" fill="#231F20" transform="translate(0,0)"/>
<path d="" fill="#231F20" transform="translate(0,0)"/>
<path d="" fill="#231F20" transform="translate(0,0)"/>
<path d="" fill="#231F20" transform="translate(0,0)"/>
<path d="" fill="#231F20" transform="translate(0,0)"/>
<path d="" fill="#231F20" transform="translate(0,0)"/>
<path d="" fill="#231F20" transform="translate(0,0)"/>
<path d="" fill="#231F20" transform="translate(0,0)"/>
<path d="" fill="#231F20" transform="translate(0,0)"/>
<path d="" fill="#231F20" transform="translate(0,0)"/>
<path d="" fill="#231F20" transform="translate(0,0)"/>
<path d="" fill="#231F20" transform="translate(0,0)"/>
<path d="" fill="#231F20" transform="translate(0,0)"/>
<path d="" fill="#231F20" transform="translate(0,0)"/>
<path d="" fill="#231F20" transform="translate(0,0)"/>
<path d="" fill="#231F20" transform="translate(0,0)"/>
<path d="" fill="#231F20" transform="translate(0,0)"/>
<path d="" fill="#231F20" transform="translate(0,0)"/>
<path d="" fill="#231F20" transform="translate(0,0)"/>
<path d="" fill="#231F20" transform="translate(0,0)"/>
<path d="" fill="#231F20" transform="translate(0,0)"/>
<path d="" fill="#231F20" transform="translate(0,0)"/>
<path d="" fill="#231F20" transform="translate(0,0)"/>
<path d="" fill="#231F20" transform="translate(0,0)"/>
<path d="" fill="#231F20" transform="translate(0,0)"/>
<path d="" fill="#231F20" transform="translate(0,0)"/>
<path d="" fill="#231F20" transform="translate(0,0)"/>
<path d="" fill="#231F20" transform="translate(0,0)"/>
<path d="" fill="#231F20" transform="translate(0,0)"/>
<path d="" fill="#231F20" transform="translate(0,0)"/>
<path d="" fill="#231F20" transform="translate(0,0)"/>
<path d="" fill="#231F20" transform="translate(0,0)"/>
<path d="" fill="#231F20" transform="translate(0,0)"/>
<path d="" fill="#231F20" transform="translate(0,0)"/>
<path d="" fill="#231F20" transform="translate(0,0)"/>
<path d="" fill="#231F20" transform="translate(0,0)"/>
<path d="" fill="#231F20" transform="translate(0,0)"/>
<path d="" fill="#231F20" transform="translate(0,0)"/>
<path d="" fill="#231F20" transform="translate(0,0)"/>
<path d="" fill="#231F20" transform="translate(0,0)"/>
<path d="" fill="#231F20" transform="translate(0,0)"/>
<path d="" fill="#231F20" transform="translate(0,0)"/>
<path d="" fill="#231F20" transform="translate(0,0)"/>
<path d="" fill="#231F20" transform="translate(0,0)"/>
<path d="" fill="#231F20" transform="translate(0,0)"/>
<path d="" fill="#231F20" transform="translate(0,0)"/>
<path d="" fill="#231F20" transform="translate(0,0)"/>
<path d="" fill="#231F20" transform="translate(0,0)"/>
<path d="" fill="#231F20" transform="translate(0,0)"/>
<path d="" fill="#231F20" transform="translate(0,0)"/>
<path d="" fill="#231F20" transform="translate(0,0)"/>
<path d="" fill="#231F20" transform="translate(0,0)"/>
<path d="" fill="#231F20" transform="translate(0,0)"/>
<path d="" fill="#231F20" transform="translate(0,0)"/>
<path d="" fill="#231F20" transform="translate(0,0)"/>
<path d="" fill="#231F20" transform="translate(0,0)"/>
<path d="" fill="#231F20" transform="translate(0,0)"/>
<path d="" fill="#231F20" transform="translate(0,0)"/>
<path d="" fill="#231F20" transform="translate(0,0)"/>
<path d="" fill="#231F20" transform="translate(0,0)"/>
<path d="" fill="#231F20" transform="translate(0,0)"/>
<path d="" fill="#231F20" transform="translate(0,0)"/>
<path d="" fill="#231F20" transform="translate(0,0)"/>
<path d="" fill="#231F20" transform="translate(0,0)"/>
<path d="" fill="#231F20" transform="translate(0,0)"/>
<path d="" fill="#231F20" transform="translate(0,0)"/>
<path d="" fill="#231F20" transform="translate(0,0)"/>
<path d="" fill="#231F20" transform="translate(0,0)"/>
<path d="" fill="#231F20" transform="translate(0,0)"/>
<path d="" fill="#231F20" transform="translate(0,0)"/>
<path d="" fill="#231F20" transform="translate(0,0)"/>
</svg>
