<?xml version="1.0" encoding="UTF-8"?>
<svg version="1.1" xmlns="http://www.w3.org/2000/svg" width="512" height="512">
<path d="M0 0 C3.7533394 0.00228746 7.50667438 -0.001242 11.26001287 -0.00397992 C18.59071938 -0.00840142 25.9214156 -0.00747728 33.25212251 -0.00456728 C39.21694347 -0.00229859 45.18176157 -0.00200705 51.14658284 -0.0030911 C52.42544222 -0.00332095 52.42544222 -0.00332095 53.73013715 -0.00355544 C55.46275217 -0.0038752 57.1953672 -0.00419942 58.92798223 -0.00452803 C75.13441331 -0.00737231 91.34083873 -0.00411252 107.54726888 0.00127234 C121.41527501 0.0057378 135.28327276 0.00496452 149.15127873 0.00035357 C165.30104646 -0.0050136 181.45080922 -0.00709603 197.60057771 -0.00403416 C199.32703336 -0.00371565 201.05348901 -0.00340128 202.77994466 -0.0030911 C203.62913052 -0.00293682 204.47831638 -0.00278255 205.35323515 -0.0026236 C211.30118526 -0.00176474 217.24913219 -0.00320768 223.1970818 -0.00557065 C230.4596962 -0.00839279 237.7222998 -0.00757999 244.98491298 -0.00228991 C248.68147737 0.00031504 252.37802385 0.00140747 256.07458806 -0.00193906 C271.11125022 -0.01447505 286.09094937 0.09030748 301.09707952 1.13072467 C301.09707952 1.79072467 301.09707952 2.45072467 301.09707952 3.13072467 C303.73707952 3.13072467 306.37707952 3.13072467 309.09707952 3.13072467 C309.09707952 3.79072467 309.09707952 4.45072467 309.09707952 5.13072467 C311.73707952 5.13072467 314.37707952 5.13072467 317.09707952 5.13072467 C317.09707952 5.79072467 317.09707952 6.45072467 317.09707952 7.13072467 C318.41707952 7.13072467 319.73707952 7.13072467 321.09707952 7.13072467 C321.09707952 7.79072467 321.09707952 8.45072467 321.09707952 9.13072467 C321.83055608 9.08431842 322.56403264 9.03791217 323.31973577 8.99009967 C326.40418208 9.14627417 327.8998073 9.82146553 330.53457952 11.38072467 C331.31317327 11.83834186 332.09176702 12.29595904 332.89395452 12.76744342 C335.67686647 14.48949355 338.40199559 16.2741113 341.09707952 18.13072467 C341.96848577 18.66181842 342.83989202 19.19291217 343.73770452 19.74009967 C348.20067928 22.71839196 351.87616034 26.54141408 355.65957952 30.31822467 C356.40143498 31.03558795 357.14329045 31.75295123 357.90762639 32.49205279 C362.15814335 36.71985995 365.37783925 40.78908792 368.08633733 46.14830279 C369.52245021 48.96502661 371.33123817 51.51240819 373.09707952 54.13072467 C375.00632649 57.28098217 375.30145584 59.4519508 375.09707952 63.13072467 C375.75707952 63.13072467 376.41707952 63.13072467 377.09707952 63.13072467 C377.09707952 64.45072467 377.09707952 65.77072467 377.09707952 67.13072467 C377.75707952 67.13072467 378.41707952 67.13072467 379.09707952 67.13072467 C379.09707952 69.77072467 379.09707952 72.41072467 379.09707952 75.13072467 C379.75707952 75.13072467 380.41707952 75.13072467 381.09707952 75.13072467 C381.09707952 77.77072467 381.09707952 80.41072467 381.09707952 83.13072467 C381.75707952 83.13072467 382.41707952 83.13072467 383.09707952 83.13072467 C384.30097567 98.08694997 384.24135358 113.03992637 384.22780418 128.03364515 C384.22551672 131.78698456 384.22904619 135.54031953 384.23178411 139.29365802 C384.2362056 146.62436454 384.23528146 153.95506075 384.23237146 161.28576766 C384.23010278 167.25058862 384.22981123 173.21540672 384.23089528 179.18022799 C384.23112513 180.45908738 384.23112513 180.45908738 384.23135962 181.7637823 C384.23167939 183.49639733 384.2320036 185.22901235 384.23233221 186.96162738 C384.23517649 203.16805847 384.23191671 219.37448388 384.22653185 235.58091404 C384.22206638 249.44892016 384.22283967 263.31691791 384.22745061 277.18492389 C384.23281778 293.33469161 384.23490021 309.48445437 384.23183835 325.63422287 C384.23151984 327.36067851 384.23120547 329.08713416 384.23089528 330.81358981 C384.23074101 331.66277567 384.23058673 332.51196153 384.23042778 333.3868803 C384.22956892 339.33483041 384.23101186 345.28277734 384.23337483 351.23072696 C384.23619697 358.49334135 384.23538417 365.75594495 384.23009409 373.01855813 C384.22748914 376.71512252 384.22639672 380.41166901 384.22974324 384.10823321 C384.24227923 399.14489538 384.13749671 414.12459453 383.09707952 429.13072467 C382.43707952 429.13072467 381.77707952 429.13072467 381.09707952 429.13072467 C381.09707952 431.77072467 381.09707952 434.41072467 381.09707952 437.13072467 C380.43707952 437.13072467 379.77707952 437.13072467 379.09707952 437.13072467 C379.09707952 439.11072467 379.09707952 441.09072467 379.09707952 443.13072467 C378.43707952 443.13072467 377.77707952 443.13072467 377.09707952 443.13072467 C377.09707952 445.11072467 377.09707952 447.09072467 377.09707952 449.13072467 C376.43707952 449.13072467 375.77707952 449.13072467 375.09707952 449.13072467 C375.14090764 449.86677936 375.18473577 450.60283404 375.22989202 451.36119342 C374.90940983 458.04418965 369.63095813 464.01701196 365.62442327 469.11119342 C363.99309822 471.20715217 363.99309822 471.20715217 362.36270452 473.89634967 C359.55861868 477.89942394 356.3547847 481.24109445 352.90957952 484.69322467 C352.28760686 485.33968951 351.6656342 485.98615436 351.02481389 486.65220904 C347.05649618 490.64489718 343.12928579 493.51966817 338.11465764 496.08482623 C335.29444567 497.54680446 332.72813446 499.35629226 330.09707952 501.13072467 C326.94682201 503.03997164 324.77585339 503.33510099 321.09707952 503.13072467 C321.09707952 503.79072467 321.09707952 504.45072467 321.09707952 505.13072467 C319.77707952 505.13072467 318.45707952 505.13072467 317.09707952 505.13072467 C317.09707952 505.79072467 317.09707952 506.45072467 317.09707952 507.13072467 C314.45707952 507.13072467 311.81707952 507.13072467 309.09707952 507.13072467 C309.09707952 507.79072467 309.09707952 508.45072467 309.09707952 509.13072467 C306.45707952 509.13072467 303.81707952 509.13072467 301.09707952 509.13072467 C301.09707952 509.79072467 301.09707952 510.45072467 301.09707952 511.13072467 C286.14085422 512.33462083 271.18787781 512.27499873 256.19415903 512.26144934 C252.44081963 512.25916187 248.68748465 512.26269134 244.93414617 512.26542926 C237.60343965 512.26985075 230.27274343 512.26892661 222.94203652 512.26601662 C216.97721556 512.26374793 211.01239746 512.26345638 205.04757619 512.26454043 C203.76871681 512.26477028 203.76871681 512.26477028 202.46402188 512.26500478 C200.73140686 512.26532454 198.99879183 512.26564875 197.2661768 512.26597737 C181.05974572 512.26882165 164.85332031 512.26556186 148.64689015 512.260177 C134.77888402 512.25571154 120.91088627 512.25648482 107.0428803 512.26109576 C90.89311257 512.26646294 74.74334981 512.26854536 58.59358132 512.2654835 C56.86712567 512.26516499 55.14067002 512.26485062 53.41421437 512.26454043 C52.56502851 512.26438616 51.71584265 512.26423188 50.84092388 512.26407293 C44.89297377 512.26321408 38.94502684 512.26465701 32.99707723 512.26701999 C25.73446283 512.26984213 18.47185923 512.26902933 11.20924605 512.26373924 C7.51268166 512.26113429 3.81613518 512.26004187 0.11957097 512.2633884 C-14.91709119 512.27592438 -29.89679034 512.17114186 -44.90292048 511.13072467 C-44.90292048 510.47072467 -44.90292048 509.81072467 -44.90292048 509.13072467 C-47.54292048 509.13072467 -50.18292048 509.13072467 -52.90292048 509.13072467 C-52.90292048 508.47072467 -52.90292048 507.81072467 -52.90292048 507.13072467 C-55.54292048 507.13072467 -58.18292048 507.13072467 -60.90292048 507.13072467 C-60.90292048 506.47072467 -60.90292048 505.81072467 -60.90292048 505.13072467 C-62.22292048 505.13072467 -63.54292048 505.13072467 -64.90292048 505.13072467 C-64.90292048 504.47072467 -64.90292048 503.81072467 -64.90292048 503.13072467 C-66.88292048 503.13072467 -68.86292048 503.13072467 -70.90292048 503.13072467 C-70.90292048 502.47072467 -70.90292048 501.81072467 -70.90292048 501.13072467 C-71.45979548 501.02759967 -72.01667048 500.92447467 -72.59042048 500.81822467 C-75.36176613 499.9943111 -77.43729669 498.63907156 -79.90292048 497.13072467 C-80.67788875 496.70315875 -81.45285701 496.27559283 -82.25130916 495.83507037 C-88.83049141 492.13111955 -93.94722321 487.69476533 -99.21542048 482.31822467 C-99.98692439 481.56218951 -100.7584283 480.80615436 -101.55331111 480.02720904 C-105.84238878 475.70867848 -109.15447538 471.54258637 -111.90096736 466.09996295 C-113.33230535 463.28681182 -115.14010814 460.74454988 -116.90292048 458.13072467 C-118.81216746 454.98046716 -119.10729681 452.80949854 -118.90292048 449.13072467 C-119.56292048 449.13072467 -120.22292048 449.13072467 -120.90292048 449.13072467 C-120.90292048 447.81072467 -120.90292048 446.49072467 -120.90292048 445.13072467 C-121.56292048 445.13072467 -122.22292048 445.13072467 -122.90292048 445.13072467 C-122.90292048 442.49072467 -122.90292048 439.85072467 -122.90292048 437.13072467 C-123.56292048 437.13072467 -124.22292048 437.13072467 -124.90292048 437.13072467 C-124.90292048 434.49072467 -124.90292048 431.85072467 -124.90292048 429.13072467 C-125.56292048 429.13072467 -126.22292048 429.13072467 -126.90292048 429.13072467 C-128.10681664 414.17449937 -128.04719454 399.22152297 -128.03364515 384.22780418 C-128.03135769 380.47446478 -128.03488716 376.72112981 -128.03762507 372.96779132 C-128.04204657 365.6370848 -128.04112243 358.30638858 -128.03821243 350.97568168 C-128.03594375 345.01086071 -128.0356522 339.04604261 -128.03673625 333.08122134 C-128.0369661 331.80236196 -128.0369661 331.80236196 -128.03720059 330.49766704 C-128.03752036 328.76505201 -128.03784457 327.03243698 -128.03817318 325.29982196 C-128.04101746 309.09339087 -128.03775767 292.88696546 -128.03237282 276.6805353 C-128.02790735 262.81252918 -128.02868064 248.94453142 -128.03329158 235.07652545 C-128.03865875 218.92675772 -128.04074118 202.77699496 -128.03767931 186.62722647 C-128.03736081 184.90077082 -128.03704643 183.17431518 -128.03673625 181.44785953 C-128.03658197 180.59867366 -128.0364277 179.7494878 -128.03626875 178.87456904 C-128.03540989 172.92661893 -128.03685283 166.978672 -128.0392158 161.03072238 C-128.04203794 153.76810799 -128.04122514 146.50550438 -128.03593506 139.24289121 C-128.03333011 135.54632682 -128.03223768 131.84978033 -128.03558421 128.15321612 C-128.0481202 113.11655396 -127.94333768 98.13685481 -126.90292048 83.13072467 C-126.24292048 83.13072467 -125.58292048 83.13072467 -124.90292048 83.13072467 C-124.90292048 80.49072467 -124.90292048 77.85072467 -124.90292048 75.13072467 C-124.24292048 75.13072467 -123.58292048 75.13072467 -122.90292048 75.13072467 C-122.90292048 72.49072467 -122.90292048 69.85072467 -122.90292048 67.13072467 C-122.24292048 67.13072467 -121.58292048 67.13072467 -120.90292048 67.13072467 C-120.67604548 65.83134967 -120.44917048 64.53197467 -120.21542048 63.19322467 C-118.4805172 55.45288694 -114.27760557 49.313496 -109.43026423 43.15025592 C-107.79943728 41.05690438 -107.79943728 41.05690438 -106.18417048 38.37291217 C-103.31764592 34.29891321 -100.00053603 30.93687258 -96.46542048 27.44322467 C-95.48218806 26.44839068 -95.48218806 26.44839068 -94.47909236 25.43345904 C-91.16238924 22.13006266 -88.09330764 19.31274609 -83.90292048 17.13072467 C-82.78917048 16.45009967 -82.78917048 16.45009967 -81.65292048 15.75572467 C-80.74542048 15.21947467 -79.83792048 14.68322467 -78.90292048 14.13072467 C-78.19651423 13.70146686 -77.49010798 13.27220904 -76.76229548 12.82994342 C-75.98370173 12.37232623 -75.20510798 11.91470904 -74.40292048 11.44322467 C-73.67073298 11.00623248 -72.93854548 10.56924029 -72.18417048 10.11900592 C-69.58859676 8.9945536 -67.70246663 8.94835987 -64.90292048 9.13072467 C-64.90292048 8.47072467 -64.90292048 7.81072467 -64.90292048 7.13072467 C-63.58292048 7.13072467 -62.26292048 7.13072467 -60.90292048 7.13072467 C-60.90292048 6.47072467 -60.90292048 5.81072467 -60.90292048 5.13072467 C-58.26292048 5.13072467 -55.62292048 5.13072467 -52.90292048 5.13072467 C-52.90292048 4.47072467 -52.90292048 3.81072467 -52.90292048 3.13072467 C-50.26292048 3.13072467 -47.62292048 3.13072467 -44.90292048 3.13072467 C-44.90292048 2.47072467 -44.90292048 1.81072467 -44.90292048 1.13072467 C-29.94669519 -0.07317149 -14.99371878 -0.01354939 0 0 Z " fill="#BD9F5C" transform="translate(127.90292048454285,-0.13072466850280762)"/>
<path d="M0 0 C79.2 0 158.4 0 240 0 C248.96234283 102.71003511 248.96234283 102.71003511 247.3046875 129.3125 C247.24783453 130.27807957 247.19098155 131.24365913 247.13240576 132.23849869 C244.15445784 179.81648029 222.66824253 209.83835994 188.60808325 241.63448572 C186.69355271 243.43181781 184.79798265 245.24711632 182.90724564 247.06943893 C159.43301705 269.65257029 135.52986075 292.25952316 101.19086647 292.43046761 C92.69611957 292.22485738 84.37507637 291.41565383 76 290 C75.67 290.66 75.34 291.32 75 292 C74.34 292 73.68 292 73 292 C73 292.66 73 293.32 73 294 C72.34 294 71.68 294 71 294 C71 294.66 71 295.32 71 296 C70.34 296 69.68 296 69 296 C68.74025391 296.58426758 68.48050781 297.16853516 68.21289062 297.77050781 C66.915344 300.15561164 65.50658878 301.75190637 63.59375 303.671875 C62.60181641 304.66767578 62.60181641 304.66767578 61.58984375 305.68359375 C60.90019531 306.36550781 60.21054688 307.04742187 59.5 307.75 C58.46552734 308.79607422 58.46552734 308.79607422 57.41015625 309.86328125 C56.74886719 310.52199219 56.08757812 311.18070312 55.40625 311.859375 C54.80103516 312.46233398 54.19582031 313.06529297 53.57226562 313.68652344 C52 315 52 315 50 315 C50 315.66 50 316.32 50 317 C49.34 317 48.68 317 48 317 C48 317.66 48 318.32 48 319 C47.34 319 46.68 319 46 319 C46 319.66 46 320.32 46 321 C45.34 321 44.68 321 44 321 C44 321.66 44 322.32 44 323 C43.34 323 42.68 323 42 323 C42 323.66 42 324.32 42 325 C41.34 325 40.68 325 40 325 C40 325.66 40 326.32 40 327 C39.34 327 38.68 327 38 327 C38 327.66 38 328.32 38 329 C37.34 329 36.68 329 36 329 C35.74025391 329.58426758 35.48050781 330.16853516 35.21289062 330.77050781 C33.915344 333.15561164 32.50658878 334.75190637 30.59375 336.671875 C29.60181641 337.66767578 29.60181641 337.66767578 28.58984375 338.68359375 C27.90019531 339.36550781 27.21054688 340.04742187 26.5 340.75 C25.46552734 341.79607422 25.46552734 341.79607422 24.41015625 342.86328125 C23.74886719 343.52199219 23.08757812 344.18070312 22.40625 344.859375 C21.80103516 345.46233398 21.19582031 346.06529297 20.57226562 346.68652344 C19 348 19 348 17 348 C16.67 348.99 16.34 349.98 16 351 C15.34 351 14.68 351 14 351 C14 330.87 14 310.74 14 290 C-11.08 290 -36.16 290 -62 290 C-62.19851406 260.97995943 -62.36464974 231.96039723 -62.45958797 202.93984807 C-62.47084395 199.51157395 -62.48249289 196.08330127 -62.49438477 192.6550293 C-62.49674556 191.97253931 -62.49910635 191.29004932 -62.50153869 190.58687782 C-62.54067116 179.54467294 -62.61161534 168.50289096 -62.69437516 157.46093673 C-62.77862247 146.12574554 -62.82787288 134.79086728 -62.84679645 123.45534319 C-62.85852713 117.09028592 -62.88608323 110.72618689 -62.95157051 104.36143684 C-63.01273101 98.36856814 -63.03148977 92.37705085 -63.01796913 86.38389969 C-63.02044198 84.18646458 -63.03830387 81.98898356 -63.07284927 79.79181862 C-63.35197608 61.12041771 -63.35197608 61.12041771 -57.62364197 55.12229919 C-54.74186749 52.80458355 -53.72762338 52 -50 52 C-50 51.34 -50 50.68 -50 50 C-49.34 50 -48.68 50 -48 50 C-48 48.68 -48 47.36 -48 46 C-47.21625 45.731875 -46.4325 45.46375 -45.625 45.1875 C-42.71885077 44.15185568 -42.71885077 44.15185568 -41 41 C-40.34 41 -39.68 41 -39 41 C-39 40.34 -39 39.68 -39 39 C-38.34 39 -37.68 39 -37 39 C-37 38.34 -37 37.68 -37 37 C-36.34 37 -35.68 37 -35 37 C-34.67 35.68 -34.34 34.36 -34 33 C-33.01 33 -32.02 33 -31 33 C-31 32.34 -31 31.68 -31 31 C-30.34 31 -29.68 31 -29 31 C-29 30.34 -29 29.68 -29 29 C-28.34 29 -27.68 29 -27 29 C-27 28.34 -27 27.68 -27 27 C-26.34 27 -25.68 27 -25 27 C-25 26.34 -25 25.68 -25 25 C-24.34 25 -23.68 25 -23 25 C-23 24.34 -23 23.68 -23 23 C-22.34 23 -21.68 23 -21 23 C-21 22.34 -21 21.68 -21 21 C-20.34 21 -19.68 21 -19 21 C-19 20.34 -19 19.68 -19 19 C-18.34 19 -17.68 19 -17 19 C-17 17.68 -17 16.36 -17 15 C-16.236875 14.79375 -15.47375 14.5875 -14.6875 14.375 C-11.71533828 13.1929774 -11.71533828 13.1929774 -10.5 9.9375 C-9 7 -9 7 -6.3125 6.125 C-5.1678125 6.063125 -5.1678125 6.063125 -4 6 C-4 5.34 -4 4.68 -4 4 C-3.34 4 -2.68 4 -2 4 C-2 3.34 -2 2.68 -2 2 C-1.34 2 -0.68 2 0 2 C0 1.34 0 0.68 0 0 Z " fill="#000000" transform="translate(167,80)"/>
<path d="M0 0 C66.33 0 132.66 0 201 0 C201.268125 22.831875 201.53625 45.66375 201.8125 69.1875 C201.93085205 76.37813232 202.0492041 83.56876465 202.17114258 90.97729492 C202.2298584 99.80529785 202.2298584 99.80529785 202.24076843 103.94721985 C202.25281181 106.82132772 202.30121635 109.69226797 202.3724823 112.56550598 C203.00762013 139.33277641 203.00762013 139.33277641 196.50421429 146.66024494 C193.04506937 149.87447131 189.33888844 152.22706094 185.24667358 154.5894928 C183.01455951 155.99085924 181.8402152 157.14138212 180.32006836 159.26220703 C159.84938233 186.75440007 159.84938233 186.75440007 144.45117188 189.52001953 C131.88401168 190.97478441 119.01462452 190.39823194 106.45050049 189.09791565 C105.04257233 188.9743998 105.04257233 188.9743998 103.60620117 188.84838867 C102.78560715 188.75853195 101.96501312 188.66867523 101.11955261 188.57609558 C98.75552499 188.79303489 98.75552499 188.79303489 97.44270325 191.26171875 C96.96661118 192.16535156 96.4905191 193.06898438 96 194 C94.81515007 195.36183776 93.58238722 196.68313764 92.31054688 197.96411133 C91.57968872 198.7045015 90.84883057 199.44489166 90.0958252 200.2077179 C89.31139038 200.9912413 88.52695557 201.77476471 87.71875 202.58203125 C86.9088562 203.39621017 86.0989624 204.2103891 85.26452637 205.04924011 C83.55569144 206.76380641 81.84424524 208.47577362 80.13037109 210.18530273 C77.5007915 212.81170946 74.88484309 215.45119141 72.26953125 218.09179688 C70.60758151 219.7560183 68.94484788 221.41945735 67.28125 223.08203125 C66.49681519 223.87567581 65.71238037 224.66932037 64.9041748 225.48701477 C64.17331665 226.21164413 63.4424585 226.9362735 62.68945312 227.68286133 C62.04786255 228.32508133 61.40627197 228.96730133 60.74523926 229.62898254 C59 231 59 231 56 231 C56 216.81 56 202.62 56 188 C37.52 188 19.04 188 0 188 C0 125.96 0 63.92 0 0 Z " fill="#FEFEFE" transform="translate(181,105)"/>
<path d="M0 0 C1.07507813 -0.00128906 2.15015625 -0.00257813 3.2578125 -0.00390625 C4.38960938 -0.00003906 5.52140625 0.00382813 6.6875 0.0078125 C7.81929688 0.00394531 8.95109375 0.00007812 10.1171875 -0.00390625 C11.19226563 -0.00261719 12.26734375 -0.00132812 13.375 0 C14.86580078 0.00169189 14.86580078 0.00169189 16.38671875 0.00341797 C18.6875 0.1328125 18.6875 0.1328125 19.6875 1.1328125 C19.78246708 3.53629536 19.81308862 5.91092232 19.80102539 8.31469727 C19.80117142 9.06586823 19.80131744 9.81703918 19.8014679 10.5909729 C19.80076863 13.08541709 19.79297564 15.57978753 19.78515625 18.07421875 C19.78329212 19.79914814 19.78186819 21.52407807 19.78086853 23.24900818 C19.77704297 27.79793753 19.76721238 32.34683517 19.75616455 36.89575195 C19.74595124 41.53401256 19.74137108 46.17227827 19.73632812 50.81054688 C19.72559014 59.91798272 19.70851327 69.02539498 19.6875 78.1328125 C15.54168113 78.16168001 11.39588784 78.17956577 7.25 78.1953125 C5.47399414 78.20788086 5.47399414 78.20788086 3.66210938 78.22070312 C2.53740234 78.22392578 1.41269531 78.22714844 0.25390625 78.23046875 C-1.30928345 78.23832397 -1.30928345 78.23832397 -2.90405273 78.24633789 C-5.3125 78.1328125 -5.3125 78.1328125 -6.3125 77.1328125 C-6.41275695 74.76519675 -6.44868935 72.42674177 -6.44189453 70.05859375 C-6.44364685 69.31878265 -6.44539917 68.57897156 -6.44720459 67.81674194 C-6.4516231 65.35957527 -6.44868513 62.90247997 -6.4453125 60.4453125 C-6.44598554 58.74519843 -6.44695557 57.04508445 -6.44821167 55.3449707 C-6.44968864 51.77717169 -6.44753411 48.20939767 -6.44287109 44.64160156 C-6.4371738 40.05792756 -6.44045281 35.47431211 -6.44644356 30.89064026 C-6.45004919 27.37861689 -6.44891057 23.86660752 -6.44631577 20.35458374 C-6.4456465 18.66401157 -6.44647489 16.97343814 -6.44879532 15.28286743 C-6.45132189 12.92422093 -6.44748121 10.56567055 -6.44189453 8.20703125 C-6.44391876 7.50154144 -6.44594299 6.79605164 -6.44802856 6.06918335 C-6.42159394 0.07503745 -5.86445306 0.00665551 0 0 Z " fill="#000000" transform="translate(325.3125,146.8671875)"/>
<path d="M0 0 C1.02996094 -0.00128906 2.05992187 -0.00257813 3.12109375 -0.00390625 C4.74724609 0.00189453 4.74724609 0.00189453 6.40625 0.0078125 C7.49035156 0.00394531 8.57445312 0.00007812 9.69140625 -0.00390625 C10.72136719 -0.00261719 11.75132812 -0.00132812 12.8125 0 C14.24045898 0.00169189 14.24045898 0.00169189 15.69726562 0.00341797 C17.90625 0.1328125 17.90625 0.1328125 18.90625 1.1328125 C19.00117722 3.47535032 19.03184791 5.78827354 19.01977539 8.13110352 C19.01992142 8.86276733 19.02006744 9.59443115 19.0202179 10.3482666 C19.01951867 12.77778034 19.01172585 15.20721833 19.00390625 17.63671875 C19.0020421 19.31680764 19.00061819 20.99689707 18.99961853 22.67698669 C18.99579307 27.10754893 18.98596256 31.5380786 18.97491455 35.96862793 C18.96470103 40.48624226 18.96012104 45.00386184 18.95507812 49.52148438 C18.94434031 58.39194373 18.92674329 67.26237031 18.90625 76.1328125 C10.65625 76.1328125 2.40625 76.1328125 -6.09375 76.1328125 C-6.11630193 66.3712985 -6.13466561 56.60980167 -6.14556217 46.84826756 C-6.15079078 42.31607156 -6.15788801 37.78389423 -6.16918945 33.25170898 C-6.18001914 28.8815842 -6.18602701 24.51147742 -6.18862724 20.14134026 C-6.19048135 18.47030287 -6.19410168 16.79926653 -6.19948006 15.12823677 C-6.20669159 12.79583699 -6.2077409 10.46351257 -6.20727539 8.13110352 C-6.21087067 7.4333934 -6.21446594 6.73568329 -6.21817017 6.01683044 C-6.20548223 0.17954166 -5.72290107 0.00678069 0 0 Z " fill="#090909" transform="translate(256.09375,148.8671875)"/>
<path d="M0 0 C67.32 0 134.64 0 204 0 C204 45.54 204 91.08 204 138 C203.34 138.33 202.68 138.66 202 139 C202 93.46 202 47.92 202 1 C135.67 1 69.34 1 1 1 C1 63.04 1 125.08 1 189 C19.48 189 37.96 189 57 189 C57 203.19 57 217.38 57 232 C60.68285334 229.790288 62.93799454 228.31337399 65.84057617 225.41821289 C66.5544902 224.71060318 67.26840424 224.00299347 68.00395203 223.27394104 C68.75932755 222.51451706 69.51470306 221.75509308 70.29296875 220.97265625 C71.08020828 220.18733017 71.86744781 219.40200409 72.67854309 218.59288025 C74.33755332 216.93522828 75.99405143 215.27505882 77.64819336 213.61254883 C80.18187586 211.06814793 82.72605812 208.53459941 85.27148438 206.00195312 C86.88345429 204.38866184 88.4948038 202.77475038 90.10546875 201.16015625 C90.86691696 200.4027565 91.62836517 199.64535675 92.41288757 198.86500549 C93.11734512 198.15424362 93.82180267 197.44348175 94.54760742 196.71118164 C95.16762131 196.08957657 95.78763519 195.4679715 96.42643738 194.82752991 C98.01992607 192.97685794 99.01329005 191.22455625 100 189 C100.64257751 188.99413376 101.28515503 188.98826752 101.94720459 188.98222351 C108.63078452 188.91832604 115.3138813 188.83391559 121.99707031 188.73754883 C124.49179721 188.70427931 126.98659975 188.67625377 129.48144531 188.65356445 C133.06608335 188.6200565 136.65002692 188.56774089 140.234375 188.51171875 C141.90956207 188.50213387 141.90956207 188.50213387 143.61859131 188.49235535 C144.65936829 188.47256119 145.70014526 188.45276703 146.77246094 188.43237305 C147.68735291 188.42126999 148.60224487 188.41016693 149.54486084 188.39872742 C152.42597249 187.93081984 153.83258037 186.9079657 156 185 C155.42655063 187.86724686 155.1385485 188.8614515 153 191 C151.09249878 191.00930786 151.09249878 191.00930786 148.72607422 190.68408203 C121.10309135 187.07886347 121.10309135 187.07886347 95.68359375 195.93212891 C83.41917015 205.66588521 68.10615766 219.78768467 61 234 C59.35 233.67 57.7 233.34 56 233 C56 219.14 56 205.28 56 191 C52.04128906 191.01160156 48.08257812 191.02320313 44.00390625 191.03515625 C40.18807048 191.04294533 36.37223558 191.04902294 32.55639648 191.05493164 C29.89558519 191.05997383 27.23477668 191.06680736 24.57397461 191.07543945 C20.75894484 191.08751009 16.94395156 191.09322929 13.12890625 191.09765625 C11.33206139 191.10539818 11.33206139 191.10539818 9.49891663 191.11329651 C7.84731789 191.11340981 7.84731789 191.11340981 6.16235352 191.11352539 C4.7000808 191.11685631 4.7000808 191.11685631 3.20826721 191.12025452 C1 191 1 191 0 190 C-0.09769852 187.54629994 -0.12996455 185.12076253 -0.12025452 182.66661072 C-0.12111053 181.89176331 -0.12196655 181.11691589 -0.12284851 180.31858826 C-0.12451378 177.69405879 -0.11896382 175.06959207 -0.11352539 172.44506836 C-0.1132193 170.54260796 -0.11335213 168.64014745 -0.11389065 166.73768711 C-0.11411721 161.62436291 -0.10830446 156.51106193 -0.10128021 151.39774323 C-0.09560224 146.60667342 -0.09531802 141.81560937 -0.09460449 137.02453613 C-0.08934874 122.99552099 -0.07538771 108.96651021 -0.0625 94.9375 C-0.041875 63.608125 -0.02125 32.27875 0 0 Z " fill="#797979" transform="translate(180,104)"/>
<path d="M0 0 C66.33 0 132.66 0 201 0 C201.268125 22.831875 201.53625 45.66375 201.8125 69.1875 C201.93085205 76.37813232 202.0492041 83.56876465 202.17114258 90.97729492 C202.2298584 99.80529785 202.2298584 99.80529785 202.24076843 103.94721985 C202.25281181 106.82132772 202.30121635 109.69226797 202.3724823 112.56550598 C203.00873544 139.3410452 203.00873544 139.3410452 196.26007366 146.80672932 C193.64951545 149.20051374 191.01788618 151.14292153 188 153 C187.34 152.67 186.68 152.34 186 152 C186.92117111 151.42651321 187.84234222 150.85302643 188.79142761 150.26216125 C194.04730632 146.43492897 198.16191645 142.38142279 199.76462173 135.91497421 C200.86826009 127.22701794 200.6743506 118.45929108 200.51927948 109.71949005 C200.47010151 106.2664898 200.4923161 102.81527651 200.50817871 99.36193848 C200.5136821 89.30358233 200.40638383 79.24541949 200.3125 69.1875 C200.209375 46.685625 200.10625 24.18375 200 1 C134.33 1 68.66 1 1 1 C1 62.38 1 123.76 1 187 C19.48 187 37.96 187 57 187 C59.13086442 189.13086442 58.25960872 193.89166935 58.31640625 196.84765625 C58.33718735 197.7340831 58.35796844 198.62050995 58.37937927 199.53379822 C58.444974 202.376617 58.50380552 205.21953117 58.5625 208.0625 C58.6056758 209.98503606 58.64928978 211.90756234 58.69335938 213.83007812 C58.80066543 218.55328668 58.90190451 223.27659153 59 228 C59.66 228.33 60.32 228.66 61 229 C60.34 229.66 59.68 230.32 59 231 C58.01 231 57.02 231 56 231 C56 216.81 56 202.62 56 188 C37.52 188 19.04 188 0 188 C0 125.96 0 63.92 0 0 Z " fill="#CDCDCD" transform="translate(181,105)"/>
<path d="M0 0 C66.99 0 133.98 0 203 0 C203 0.33 203 0.66 203 1 C136.34 1 69.68 1 1 1 C1 63.7 1 126.4 1 191 C-2.20446953 187.79553047 -2.34867315 187.09859909 -2.39656812 182.81555134 C-2.38919383 182.11108386 -2.38181955 181.40661637 -2.3742218 180.68080139 C-2.37819621 179.92968675 -2.38217061 179.1785721 -2.38626546 178.4046964 C-2.39591269 175.88036523 -2.38405593 173.35659111 -2.37231445 170.83227539 C-2.37474164 169.02553599 -2.37846025 167.21879794 -2.38337708 165.4120636 C-2.39280036 160.49883481 -2.38334822 155.58580474 -2.37004495 150.67259145 C-2.35874673 145.53615738 -2.36283674 140.39973333 -2.36479187 135.26329041 C-2.36567544 126.63553615 -2.35458192 118.00786037 -2.33618164 109.38012695 C-2.31501976 99.40026543 -2.31150235 89.42051897 -2.3177436 79.44063956 C-2.32343567 69.84847178 -2.31779301 60.25634459 -2.30657005 50.66418266 C-2.30192131 46.5785389 -2.30105142 42.49291994 -2.3031559 38.40727425 C-2.30503766 33.59660687 -2.29694352 28.78605681 -2.2810955 23.97541618 C-2.27684781 22.20812338 -2.27600535 20.44081867 -2.27878571 18.67352295 C-2.2820013 16.26428003 -2.27294145 13.85538899 -2.26069641 11.44618225 C-2.26447573 10.74394549 -2.26825506 10.04170873 -2.27214891 9.31819206 C-2.23680963 5.39743803 -1.81853695 3.6370739 0 0 Z " fill="#2F2C2C" transform="translate(179,103)"/>
<path d="M0 0 C1.15757812 -0.00257813 2.31515625 -0.00515625 3.5078125 -0.0078125 C4.72210938 -0.00007812 5.93640625 0.00765625 7.1875 0.015625 C8.40179688 0.00789062 9.61609375 0.00015625 10.8671875 -0.0078125 C12.60355469 -0.00394531 12.60355469 -0.00394531 14.375 0 C15.44105469 0.00225586 16.50710938 0.00451172 17.60546875 0.00683594 C20.1875 0.265625 20.1875 0.265625 22.1875 2.265625 C22.38042423 4.6994613 22.44991022 7.01896856 22.43041992 9.45336914 C22.43231827 10.19332626 22.43421661 10.93328339 22.43617249 11.69566345 C22.43988461 14.14747632 22.42917089 16.5989946 22.41796875 19.05078125 C22.41677719 20.74946559 22.41632374 22.44815059 22.4165802 24.14683533 C22.41501464 27.70869057 22.40671875 31.2704454 22.39331055 34.83227539 C22.37630769 39.40808087 22.37249652 43.98377604 22.37325573 48.55960941 C22.37298441 52.06734784 22.36750955 55.57506193 22.36025429 59.08279228 C22.35706244 60.77057142 22.35509902 62.45835333 22.35436058 64.14613533 C22.35220318 66.49989694 22.34347247 68.85353923 22.33276367 71.20727539 C22.33344345 72.26315353 22.33344345 72.26315353 22.33413696 73.34036255 C22.30197518 78.15114982 22.30197518 78.15114982 21.1875 79.265625 C16.71418042 79.51942734 12.2296654 79.45085221 7.75 79.453125 C5.85024414 79.47149414 5.85024414 79.47149414 3.91210938 79.49023438 C2.70490234 79.49216797 1.49769531 79.49410156 0.25390625 79.49609375 C-1.4175647 79.50225708 -1.4175647 79.50225708 -3.12280273 79.50854492 C-5.8125 79.265625 -5.8125 79.265625 -7.8125 77.265625 C-8.01061083 74.86744131 -8.08534618 72.58475139 -8.07128906 70.18554688 C-8.0747937 69.45694962 -8.07829834 68.72835236 -8.08190918 67.97767639 C-8.09073008 65.5631464 -8.0848762 63.1489081 -8.078125 60.734375 C-8.07947155 59.06050561 -8.081412 57.3866366 -8.08392334 55.71276855 C-8.08687508 52.20219199 -8.08257538 48.6917171 -8.07324219 45.18115234 C-8.06184759 40.67489276 -8.06840679 36.16887139 -8.08038712 31.66262054 C-8.08760438 28.20544633 -8.08531841 24.74832885 -8.08013153 21.29115295 C-8.07879466 19.62931795 -8.08044405 17.96747785 -8.08509064 16.3056488 C-8.09015373 13.98552753 -8.08244898 11.66579533 -8.07128906 9.34570312 C-8.07533752 8.65473038 -8.07938599 7.96375763 -8.08355713 7.25184631 C-8.02543841 0.74996995 -6.19444828 0.01310796 0 0 Z M-4.8125 3.265625 C-4.90742722 5.60816282 -4.93809791 7.92108604 -4.92602539 10.26391602 C-4.92617142 10.99557983 -4.92631744 11.72724365 -4.9264679 12.4810791 C-4.92576867 14.91059284 -4.91797585 17.34003083 -4.91015625 19.76953125 C-4.9082921 21.44962014 -4.90686819 23.12970957 -4.90586853 24.80979919 C-4.90204307 29.24036143 -4.89221256 33.6708911 -4.88116455 38.10144043 C-4.87095103 42.61905476 -4.86637104 47.13667434 -4.86132812 51.65429688 C-4.85059031 60.52475623 -4.83299329 69.39518281 -4.8125 78.265625 C3.4375 78.265625 11.6875 78.265625 20.1875 78.265625 C20.21005193 68.504111 20.22841561 58.74261417 20.23931217 48.98108006 C20.24454078 44.44888406 20.25163801 39.91670673 20.26293945 35.38452148 C20.27376914 31.0143967 20.27977701 26.64428992 20.28237724 22.27415276 C20.28423135 20.60311537 20.28785168 18.93207903 20.29323006 17.26104927 C20.30044159 14.92864949 20.3014909 12.59632507 20.30102539 10.26391602 C20.30462067 9.5662059 20.30821594 8.86849579 20.31192017 8.14964294 C20.57812466 4.92903119 20.57812466 4.92903119 19.1875 2.265625 C17.49191274 2.16630347 15.79224253 2.13482493 14.09375 2.1328125 C13.06378906 2.13152344 12.03382813 2.13023437 10.97265625 2.12890625 C9.88855469 2.13277344 8.80445313 2.13664063 7.6875 2.140625 C6.06134766 2.13482422 6.06134766 2.13482422 4.40234375 2.12890625 C3.37238281 2.13019531 2.34242188 2.13148438 1.28125 2.1328125 C-0.14670898 2.13450439 -0.14670898 2.13450439 -1.60351562 2.13623047 C-3.78702138 2.01863044 -3.78702138 2.01863044 -4.8125 3.265625 Z " fill="#C0C0C0" transform="translate(254.8125,146.734375)"/>
<path d="M0 0 C1.07507813 -0.00128906 2.15015625 -0.00257813 3.2578125 -0.00390625 C4.38960938 -0.00003906 5.52140625 0.00382813 6.6875 0.0078125 C7.81929688 0.00394531 8.95109375 0.00007812 10.1171875 -0.00390625 C11.19226563 -0.00261719 12.26734375 -0.00132812 13.375 0 C14.86580078 0.00169189 14.86580078 0.00169189 16.38671875 0.00341797 C18.6875 0.1328125 18.6875 0.1328125 19.6875 1.1328125 C19.78246708 3.53629536 19.81308862 5.91092232 19.80102539 8.31469727 C19.80117142 9.06586823 19.80131744 9.81703918 19.8014679 10.5909729 C19.80076863 13.08541709 19.79297564 15.57978753 19.78515625 18.07421875 C19.78329212 19.79914814 19.78186819 21.52407807 19.78086853 23.24900818 C19.77704297 27.79793753 19.76721238 32.34683517 19.75616455 36.89575195 C19.74595124 41.53401256 19.74137108 46.17227827 19.73632812 50.81054688 C19.72559014 59.91798272 19.70851327 69.02539498 19.6875 78.1328125 C15.54168113 78.16168001 11.39588784 78.17956577 7.25 78.1953125 C5.47399414 78.20788086 5.47399414 78.20788086 3.66210938 78.22070312 C2.53740234 78.22392578 1.41269531 78.22714844 0.25390625 78.23046875 C-1.30928345 78.23832397 -1.30928345 78.23832397 -2.90405273 78.24633789 C-5.3125 78.1328125 -5.3125 78.1328125 -6.3125 77.1328125 C-6.41275695 74.76519675 -6.44868935 72.42674177 -6.44189453 70.05859375 C-6.44364685 69.31878265 -6.44539917 68.57897156 -6.44720459 67.81674194 C-6.4516231 65.35957527 -6.44868513 62.90247997 -6.4453125 60.4453125 C-6.44598554 58.74519843 -6.44695557 57.04508445 -6.44821167 55.3449707 C-6.44968864 51.77717169 -6.44753411 48.20939767 -6.44287109 44.64160156 C-6.4371738 40.05792756 -6.44045281 35.47431211 -6.44644356 30.89064026 C-6.45004919 27.37861689 -6.44891057 23.86660752 -6.44631577 20.35458374 C-6.4456465 18.66401157 -6.44647489 16.97343814 -6.44879532 15.28286743 C-6.45132189 12.92422093 -6.44748121 10.56567055 -6.44189453 8.20703125 C-6.44391876 7.50154144 -6.44594299 6.79605164 -6.44802856 6.06918335 C-6.42159394 0.07503745 -5.86445306 0.00665551 0 0 Z M-4.3125 3.1328125 C-4.3125 27.2228125 -4.3125 51.3128125 -4.3125 76.1328125 C6.0825 75.6378125 6.0825 75.6378125 16.6875 75.1328125 C16.64810236 70.04730834 16.64810236 70.04730834 16.59741211 64.96191406 C16.57632072 59.55979696 16.57632072 59.55979696 17.18650818 57.21636963 C17.78641627 54.72143312 17.80725411 52.47150411 17.80102539 49.90527344 C17.80094986 48.86449646 17.80087433 47.82371948 17.80079651 46.75140381 C17.79563522 45.63461243 17.79047394 44.51782104 17.78515625 43.3671875 C17.7837413 42.21865295 17.78232635 41.07011841 17.78086853 39.88677979 C17.77527143 36.21876419 17.76271944 32.55080965 17.75 28.8828125 C17.74498463 26.39583421 17.74042178 23.90885497 17.73632812 21.421875 C17.72530295 15.32549731 17.70804027 9.22916526 17.6875 3.1328125 C10.4275 3.1328125 3.1675 3.1328125 -4.3125 3.1328125 Z " fill="#4C4846" transform="translate(325.3125,146.8671875)"/>
<path d="M0 0 C0.33 0 0.66 0 1 0 C1 61.05 1 122.1 1 185 C19.48 185 37.96 185 57 185 C59.13086442 187.13086442 58.25960872 191.89166935 58.31640625 194.84765625 C58.33718735 195.7340831 58.35796844 196.62050995 58.37937927 197.53379822 C58.444974 200.376617 58.50380552 203.21953117 58.5625 206.0625 C58.6056758 207.98503606 58.64928978 209.90756234 58.69335938 211.83007812 C58.80066543 216.55328668 58.90190451 221.27659153 59 226 C59.66 226.33 60.32 226.66 61 227 C60.34 227.66 59.68 228.32 59 229 C58.01 229 57.02 229 56 229 C56 214.81 56 200.62 56 186 C37.52 186 19.04 186 0 186 C0 124.62 0 63.24 0 0 Z " fill="#E8E8E8" transform="translate(181,107)"/>
<path d="M0 0 C0.33 0.99 0.66 1.98 1 3 C0.43410156 3.32627632 -0.13179687 3.65255264 -0.71484375 3.98871613 C-4.04220087 6.47060831 -6.50465395 8.87772525 -7.47705078 13.04389 C-8.25840962 19.54809189 -8.06310967 26.11568759 -8 32.65429688 C-8.00760961 34.88206388 -8.01873142 37.10982124 -8.03309631 39.33755493 C-8.06209117 45.37443977 -8.04200937 51.41027855 -8.0130806 57.44712639 C-7.99118675 63.7599371 -8.01447469 70.07257763 -8.03295898 76.38537598 C-8.05789286 86.97739921 -8.05502843 97.56913202 -8.03076172 108.16113281 C-8.00584985 119.06809329 -7.99776544 129.9748535 -8.01220703 140.88183594 C-8.01309224 141.55479515 -8.01397745 142.22775436 -8.01488948 142.92110628 C-8.01943403 146.29734173 -8.0243083 149.67357661 -8.02934647 153.04981136 C-8.07067865 181.03337589 -8.04771281 209.01643785 -8 237 C16.42 237 40.84 237 66 237 C66 237.33 66 237.66 66 238 C41.25 238 16.5 238 -9 238 C-9.19851406 208.97995943 -9.36464974 179.96039723 -9.45958797 150.93984807 C-9.47084395 147.51157395 -9.48249289 144.08330127 -9.49438477 140.6550293 C-9.49674556 139.97253931 -9.49910635 139.29004932 -9.50153869 138.58687782 C-9.54067116 127.54467294 -9.61161534 116.50289096 -9.69437516 105.46093673 C-9.77862247 94.12574554 -9.82787288 82.79086728 -9.84679645 71.45534319 C-9.85852713 65.09028592 -9.88608323 58.72618689 -9.95157051 52.36143684 C-10.01273101 46.36856814 -10.03148977 40.37705085 -10.01796913 34.38389969 C-10.02044198 32.18646458 -10.03830387 29.98898356 -10.07284927 27.79181862 C-10.32178835 11.13974092 -10.32178835 11.13974092 -6.92768669 5.64529228 C-4.72789108 3.41773077 -2.65746654 1.641358 0 0 Z " fill="#261B27" transform="translate(114,132)"/>
<path d="M0 0 C0.33 0.99 0.66 1.98 1 3 C-0.2257843 4.51264954 -0.2257843 4.51264954 -2 6 C-4.02775574 6.12956238 -4.02775574 6.12956238 -6.38745117 5.79760742 C-7.28053482 5.68991028 -8.17361847 5.58221313 -9.09376526 5.47125244 C-10.06700241 5.35054382 -11.04023956 5.22983521 -12.04296875 5.10546875 C-38.70363014 2.59485823 -38.70363014 2.59485823 -62.32411194 13.31828308 C-73.36059012 23.03415309 -87.33148377 35.66296754 -94 49 C-95.65 48.67 -97.3 48.34 -99 48 C-99 34.14 -99 20.28 -99 6 C-117.15 6 -135.3 6 -154 6 C-154 5.67 -154 5.34 -154 5 C-135.52 5 -117.04 5 -98 5 C-98 18.86 -98 32.72 -98 47 C-94.31714666 44.790288 -92.06200546 43.31337399 -89.15942383 40.41821289 C-88.4455098 39.71060318 -87.73159576 39.00299347 -86.99604797 38.27394104 C-86.24067245 37.51451706 -85.48529694 36.75509308 -84.70703125 35.97265625 C-83.91979172 35.18733017 -83.13255219 34.40200409 -82.32145691 33.59288025 C-80.66244668 31.93522828 -79.00594857 30.27505882 -77.35180664 28.61254883 C-74.81812414 26.06814793 -72.27394188 23.53459941 -69.72851562 21.00195312 C-68.11654571 19.38866184 -66.5051962 17.77475038 -64.89453125 16.16015625 C-64.13308304 15.4027565 -63.37163483 14.64535675 -62.58711243 13.86500549 C-61.5304261 12.79886269 -61.5304261 12.79886269 -60.45239258 11.71118164 C-59.83237869 11.08957657 -59.21236481 10.4679715 -58.57356262 9.82752991 C-56.98007393 7.97685794 -55.98670995 6.22455625 -55 4 C-54.03280281 3.99120064 -54.03280281 3.99120064 -53.04606628 3.98222351 C-46.34641816 3.91838362 -39.6472546 3.83398853 -32.94799805 3.73754883 C-30.44643535 3.70425529 -27.94479673 3.67623732 -25.44311523 3.65356445 C-21.85106998 3.6201004 -18.25972334 3.56778757 -14.66796875 3.51171875 C-13.54601608 3.50532883 -12.42406342 3.4989389 -11.26811218 3.49235535 C-9.70683342 3.46266411 -9.70683342 3.46266411 -8.11401367 3.43237305 C-6.7383448 3.41571846 -6.7383448 3.41571846 -5.33488464 3.39872742 C-2.59922227 2.93155933 -1.70854355 2.13207382 0 0 Z " fill="#4B4543" transform="translate(335,289)"/>
<path d="M0 0 C0.495 1.485 0.495 1.485 1 3 C-0.73042913 5.18058241 -1.62075182 5.93727565 -4.41081238 6.39872742 C-5.36345474 6.40983047 -6.31609711 6.42093353 -7.29760742 6.43237305 C-8.91894844 6.46206429 -8.91894844 6.46206429 -10.57304382 6.49235535 C-12.32159416 6.50194023 -12.32159416 6.50194023 -14.10546875 6.51171875 C-15.29981033 6.52966995 -16.49415192 6.54762115 -17.72468567 6.56611633 C-21.54558768 6.62037033 -25.36636371 6.65416429 -29.1875 6.6875 C-31.77540822 6.72065965 -34.36329977 6.75514802 -36.95117188 6.79101562 C-43.30066828 6.87610557 -49.65018069 6.94439153 -56 7 C-55.67 6.01 -55.34 5.02 -55 4 C-54.03280281 3.99120064 -54.03280281 3.99120064 -53.04606628 3.98222351 C-46.34641816 3.91838362 -39.6472546 3.83398853 -32.94799805 3.73754883 C-30.44643535 3.70425529 -27.94479673 3.67623732 -25.44311523 3.65356445 C-21.85106998 3.6201004 -18.25972334 3.56778757 -14.66796875 3.51171875 C-12.98503975 3.50213387 -12.98503975 3.50213387 -11.26811218 3.49235535 C-9.70683342 3.46266411 -9.70683342 3.46266411 -8.11401367 3.43237305 C-6.7383448 3.41571846 -6.7383448 3.41571846 -5.33488464 3.39872742 C-2.59922227 2.93155933 -1.70854355 2.13207382 0 0 Z " fill="#84807D" transform="translate(335,289)"/>
<path d="M0 0 C0.33 0.99 0.66 1.98 1 3 C0.21496094 3.7734375 -0.57007813 4.546875 -1.37890625 5.34375 C-8.25475491 12.11658988 -8.25475491 12.11658988 -14.75 19.25 C-17.17879178 22.07072395 -19.63586425 24.85167964 -22.1875 27.5625 C-22.82042969 28.24441406 -23.45335937 28.92632812 -24.10546875 29.62890625 C-25.04326172 30.30759766 -25.04326172 30.30759766 -26 31 C-27.32 30.67 -28.64 30.34 -30 30 C-20.1 20.1 -10.2 10.2 0 0 Z " fill="#575656" transform="translate(366,258)"/>
<path d="M0 0 C0.66 0 1.32 0 2 0 C2.33 12.87 2.66 25.74 3 39 C3.66 39.33 4.32 39.66 5 40 C4.34 40.66 3.68 41.32 3 42 C2.01 42 1.02 42 0 42 C0 28.14 0 14.28 0 0 Z " fill="#ABABAB" transform="translate(237,294)"/>
<path d="M0 0 C0.33 0.99 0.66 1.98 1 3 C-2.63 6.63 -6.26 10.26 -10 14 C-10.99 13.67 -11.98 13.34 -13 13 C-8.71 8.71 -4.42 4.42 0 0 Z " fill="#6D6B69" transform="translate(366,258)"/>
<path d="M0 0 C0.33 0.99 0.66 1.98 1 3 C-1.64 5.64 -4.28 8.28 -7 11 C-7.66 10.34 -8.32 9.68 -9 9 C-6.03 6.03 -3.06 3.06 0 0 Z " fill="#383124" transform="translate(114,132)"/>
<path d="M0 0 C0.99 0 1.98 0 3 0 C2.67 0.99 2.34 1.98 2 3 C1.34 3 0.68 3 0 3 C0 2.01 0 1.02 0 0 Z " fill="#F2EEE5" transform="translate(0,0)"/>
</svg>
