<?xml version="1.0" encoding="UTF-8"?>
<svg version="1.1" xmlns="http://www.w3.org/2000/svg" width="512" height="512">
<path d="M0 0 C1.07592407 0.00040787 1.07592407 0.00040787 2.17358398 0.00082397 C13.8144974 0.0210137 25.28423637 0.48622129 36.8125 2.1875 C37.86800049 2.34025391 37.86800049 2.34025391 38.94482422 2.49609375 C56.5142631 5.12603055 73.48069213 9.171989 89.8125 16.1875 C91.85141144 16.94495819 93.89308414 17.69502672 95.9375 18.4375 C109.528926 23.65203225 122.78078766 29.97911794 134.8125 38.1875 C136.51961643 39.26641354 138.22688352 40.34510146 139.9375 41.41845703 C152.49365046 49.34385049 163.36691331 58.34624823 174.09082031 68.56738281 C176.45006904 70.78745861 178.87877346 72.92466727 181.3125 75.0625 C185.52489723 78.839132 189.19224276 82.84911402 192.8125 87.1875 C193.68742114 88.20171376 194.56384152 89.21463528 195.44140625 90.2265625 C203.85788304 99.97469624 211.01088575 110.24784071 217.8125 121.1875 C218.53373047 122.33605469 218.53373047 122.33605469 219.26953125 123.5078125 C228.49754123 138.50650641 236.460041 154.27558504 241.81640625 171.078125 C242.52363679 173.28579366 243.26415472 175.48292126 244.02734375 177.671875 C248.36130965 190.1600199 251.36323229 202.76892669 253.5 215.8125 C253.61939941 216.52696289 253.73879883 217.24142578 253.86181641 217.97753906 C255.79251249 230.48934376 256.00849547 243.17664388 256 255.8125 C255.99959213 256.8504924 255.99959213 256.8504924 255.99917603 257.90945435 C255.96745349 275.58855284 254.43513304 292.87520615 250.8125 310.1875 C250.55146484 311.44095215 250.55146484 311.44095215 250.28515625 312.71972656 C247.79278007 324.43819179 244.53968179 335.18698045 239.8125 346.1875 C239.03366109 348.26785376 238.26271249 350.35117992 237.5 352.4375 C231.21864247 368.77304323 223.2365586 384.3753775 212.95849609 398.55737305 C212.00342143 399.91592301 211.12752648 401.32970204 210.2734375 402.75390625 C205.41506796 410.84685871 199.20902314 418.82068309 192.5 425.484375 C190.23405126 427.76349786 188.06228747 430.09565341 185.91796875 432.48852539 C181.42135568 437.50267012 176.81618753 442.18250974 171.6875 446.56640625 C169.84664877 448.11471501 169.84664877 448.11471501 168.38671875 449.6328125 C160.14931602 457.7680142 150.41543847 464.77566932 140.44921875 470.62109375 C137.6988946 472.25499002 135.00475261 473.95974973 132.3125 475.6875 C130.47948431 476.85466567 128.64615918 478.02134553 126.8125 479.1875 C125.98878906 479.71601563 125.16507812 480.24453125 124.31640625 480.7890625 C119.00154361 484.10553679 113.63408424 486.65059479 107.81640625 488.96875 C104.93069462 490.13954587 102.12825348 491.42112642 99.3125 492.75 C94.55493209 494.94315631 89.73242867 496.63514658 84.734375 498.1953125 C81.73829256 499.15729166 81.73829256 499.15729166 78.69140625 500.6171875 C73.65727477 502.81352481 68.33124755 503.93881574 63 505.1875 C61.34037231 505.57941528 61.34037231 505.57941528 59.6472168 505.97924805 C40.03100492 510.52877834 20.86550867 512.40204395 0.75 512.375 C-0.01518951 512.37472809 -0.78037903 512.37445618 -1.5687561 512.37417603 C-19.42145723 512.34510489 -36.71468827 511.00980096 -54.1875 507.1875 C-55.41750732 506.92646484 -55.41750732 506.92646484 -56.67236328 506.66015625 C-67.06531823 504.43377994 -76.91617053 501.84357475 -86.6953125 497.66015625 C-90.25581493 496.15869158 -93.84556147 494.87851171 -97.5 493.625 C-103.33670407 491.56575834 -108.74939022 489.13058041 -114.1875 486.1875 C-115.49267578 485.49333984 -115.49267578 485.49333984 -116.82421875 484.78515625 C-130.90824223 477.21072422 -144.72065146 469.24279926 -157.1875 459.1875 C-158.04730469 458.51332031 -158.90710938 457.83914063 -159.79296875 457.14453125 C-164.18660409 453.68543578 -168.27900387 450.19370853 -172.1875 446.1875 C-173.7463728 444.80838911 -175.30937413 443.43393971 -176.875 442.0625 C-181.62056421 437.82843373 -185.83914765 433.32480874 -190.05859375 428.5703125 C-191.24063757 427.24729098 -192.44050137 425.93775896 -193.703125 424.69140625 C-197.5176092 420.82673147 -200.79169547 416.41756793 -204.1875 412.1875 C-204.70570313 411.548125 -205.22390625 410.90875 -205.7578125 410.25 C-210.6698031 403.96265204 -214.73861548 397.08213872 -218.8984375 390.28662109 C-220.14062991 388.26382369 -221.39712172 386.25056598 -222.65625 384.23828125 C-227.28036273 376.78150724 -231.03568094 369.40234755 -234.1875 361.1875 C-234.97423459 359.3104252 -235.76603881 357.43546841 -236.5625 355.5625 C-238.70171577 350.41755067 -240.77339632 345.24777207 -242.8125 340.0625 C-243.2463501 338.97074463 -243.2463501 338.97074463 -243.68896484 337.85693359 C-247.15021899 328.99206728 -249.56285511 320.11076606 -251.25 310.75 C-251.50487183 309.36433838 -251.50487183 309.36433838 -251.76489258 307.95068359 C-252.09614099 306.14829787 -252.42557863 304.34557811 -252.75292969 302.54248047 C-253.10004725 300.66141532 -253.47170121 298.78488345 -253.8515625 296.91015625 C-256.52223779 283.65643185 -256.39260063 269.96964051 -256.375 256.5 C-256.37472809 255.71202026 -256.37445618 254.92404053 -256.37417603 254.11218262 C-256.3550758 242.04511912 -256.03304558 230.13512917 -254.1875 218.1875 C-254.08566406 217.52057129 -253.98382813 216.85364258 -253.87890625 216.16650391 C-253.13300131 211.47351863 -252.19549056 206.82967142 -251.1875 202.1875 C-251.01347656 201.36604492 -250.83945313 200.54458984 -250.66015625 199.69824219 C-248.40583364 189.17677442 -245.75231802 179.22963127 -241.51953125 169.328125 C-240.44204809 166.78766618 -239.54558886 164.32319314 -238.75 161.6875 C-235.33644915 151.04525323 -229.70749028 140.85807121 -224.1875 131.1875 C-223.63191406 130.21167969 -223.07632813 129.23585937 -222.50390625 128.23046875 C-216.64576547 118.06679021 -210.55730648 108.32479754 -203.1875 99.1875 C-202.51332031 98.32769531 -201.83914062 97.46789062 -201.14453125 96.58203125 C-197.68543578 92.18839591 -194.19370853 88.09599613 -190.1875 84.1875 C-188.80838911 82.6286272 -187.43393971 81.06562587 -186.0625 79.5 C-181.82843373 74.75443579 -177.32480874 70.53585235 -172.5703125 66.31640625 C-171.24729098 65.13436243 -169.93775896 63.93449863 -168.69140625 62.671875 C-160.47669222 54.56384557 -150.75971021 47.58130782 -140.82421875 41.75390625 C-138.0738946 40.12000998 -135.37975261 38.41525027 -132.6875 36.6875 C-130.85448431 35.52033433 -129.02115918 34.35365447 -127.1875 33.1875 C-126.36378906 32.65898438 -125.54007813 32.13046875 -124.69140625 31.5859375 C-119.37654361 28.26946321 -114.00908424 25.72440521 -108.19140625 23.40625 C-105.30569462 22.23545413 -102.50325348 20.95387358 -99.6875 19.625 C-94.92993209 17.43184369 -90.10742867 15.73985342 -85.109375 14.1796875 C-82.11283337 13.21729664 -82.11283337 13.21729664 -79.0625 11.7578125 C-74.04731344 9.57033751 -68.74788762 8.43574396 -63.4375 7.1875 C-62.33293457 6.92622314 -61.22836914 6.66494629 -60.09033203 6.39575195 C-53.44475232 4.85702323 -46.79786826 3.45833081 -40.0625 2.375 C-39.37961914 2.26349609 -38.69673828 2.15199219 -37.99316406 2.03710938 C-25.42614281 0.16960125 -12.68135681 -0.01828829 0 0 Z " fill="#BEA05D" transform="translate(256.1875,-0.1875)"/>
<path d="M0 0 C2.72484351 -0.00448053 5.44966162 -0.01217931 8.1744957 -0.02053452 C28.14474718 -0.07344624 48.06279201 0.21905685 68.01205063 1.17901993 C69.32378345 1.24166912 69.32378345 1.24166912 70.66201591 1.30558395 C121.02924762 3.76508363 121.02924762 3.76508363 135.21908188 17.24542618 C159.93440859 48.13958457 151.57268635 115.15699554 147.83626938 152.02276993 C147.63534543 153.76421648 147.42988278 155.50514761 147.21908188 157.24542618 C147.08228012 158.4773671 147.08228012 158.4773671 146.94271469 159.73419571 C145.3696785 173.24298894 141.55219744 185.92516716 130.47298813 194.69855118 C120.28492968 201.69070221 108.76875517 202.76879478 96.74642563 204.29230118 C96.05431425 204.38024696 95.36220287 204.46819275 94.64911842 204.55880356 C79.0823439 206.49950201 63.55534474 207.10679349 47.88393784 207.4472084 C45.06478517 207.51186599 42.24611552 207.59091778 39.42734623 207.67034817 C13.38919681 208.40312995 -12.58037253 208.37756747 -38.61807632 207.55572891 C-42.57902886 207.43337068 -46.54021568 207.32657103 -50.50162125 207.22003555 C-114.14789664 205.33965133 -114.14789664 205.33965133 -128.76919937 192.49933243 C-141.35345901 179.10666211 -142.63543623 160.81520031 -143.33560562 143.33917618 C-143.37765121 142.30160172 -143.41969681 141.26402725 -143.46301651 140.19501114 C-143.8736571 129.1669671 -143.93214251 118.14379453 -143.91128922 107.10919571 C-143.90592065 103.74700797 -143.91128298 100.38495373 -143.91763687 97.02276993 C-143.93904938 32.59459518 -143.93904938 32.59459518 -128.96841812 16.26886368 C-124.1270245 11.68125279 -119.06325099 9.32312561 -112.78091812 7.24542618 C-111.89017593 6.91155899 -110.99943375 6.5776918 -110.08169937 6.23370743 C-76.17822299 -3.91727426 -35.06820815 0.04759941 0 0 Z " fill="#FEFEFE" transform="translate(253.7809181213379,151.75457382202148)"/>
<path d="M0 0 C3.80183274 1.5207331 7.13322314 3.08897929 10.6875 5.0625 C14.31676566 7.08258292 14.31676566 7.08258292 18 9 C18 9.66 18 10.32 18 11 C19.02287109 11.12181641 19.02287109 11.12181641 20.06640625 11.24609375 C23.78861897 12.20266772 26.7204264 14.03746147 29.9375 16.0625 C31.29090619 16.89446754 32.64508887 17.7251731 34 18.5546875 C34.67675781 18.97073242 35.35351562 19.38677734 36.05078125 19.81542969 C38.81516794 21.49539013 41.62265326 23.09380001 44.4375 24.6875 C55.01578656 30.69205341 65.49954966 36.86071772 76 43 C72.98034023 46.19635106 69.47442258 48.20476018 65.6875 50.375 C64.15076496 51.26645024 62.61432125 52.15840284 61.078125 53.05078125 C59.84739258 53.76355225 59.84739258 53.76355225 58.59179688 54.49072266 C54.96618756 56.60201851 51.36082199 58.74686755 47.75390625 60.88989258 C39.82021647 65.60155249 31.86226873 70.25299436 23.79833984 74.73828125 C17.90946103 78.02225824 12.10627942 81.44671302 6.31713867 84.90307617 C1.10461064 88 1.10461064 88 0 88 C0 58.96 0 29.92 0 0 Z " fill="#BEA05D" transform="translate(227,212)"/>
<path d="M0 0 C0.66 0.33 1.32 0.66 2 1 C1.360625 1.2475 0.72125 1.495 0.0625 1.75 C-2.18741541 2.81562433 -2.18741541 2.81562433 -2.75 5.125 C-2.8325 5.74375 -2.915 6.3625 -3 7 C-4.32 6.67 -5.64 6.34 -7 6 C-4.69 4.02 -2.38 2.04 0 0 Z " fill="#F2F5ED" transform="translate(131,163)"/>
</svg>
