<?xml version="1.0" encoding="UTF-8"?>
<svg version="1.1" xmlns="http://www.w3.org/2000/svg" width="512" height="512">
<path d="M0 0 C3.65253516 0.0024901 7.30504585 -0.0065751 10.95757174 -0.01403749 C18.09538509 -0.02672478 25.23316071 -0.02858559 32.37098344 -0.02623723 C38.1804227 -0.02444679 43.9898506 -0.02621919 49.79928851 -0.03046167 C50.62935208 -0.03105686 51.45941564 -0.03165205 52.31463265 -0.03226527 C54.00150328 -0.03347716 55.68837391 -0.03469129 57.37524454 -0.03590765 C73.16206609 -0.04676071 88.94886623 -0.04463161 104.73568897 -0.0385228 C119.134463 -0.03335858 133.53316927 -0.04460001 147.9319299 -0.06362102 C162.7616653 -0.08305918 177.59136874 -0.0912448 192.42111695 -0.08749777 C200.72871793 -0.08559439 209.03626131 -0.0879882 217.3438518 -0.10221231 C224.41837131 -0.11420379 231.49279778 -0.11544513 238.56731875 -0.10342214 C242.16695868 -0.09758666 245.76642913 -0.09628316 249.36605716 -0.10842454 C286.13143657 -0.22374488 321.70049949 4.43236001 349.51143527 30.72923338 C372.33073836 53.76048047 380.19947577 86.24837527 380.17531466 117.8024298 C380.17977135 119.64287006 380.17977135 119.64287006 380.18431807 121.52049094 C380.1914535 124.90064549 380.19417386 128.28074915 380.19491553 131.66090751 C380.19677792 135.31693332 380.20433122 138.97294837 380.21105075 142.62896788 C380.2245881 150.61300068 380.23065193 158.59702842 380.23506141 166.58107078 C380.2378323 171.57609423 380.24207122 176.57111576 380.24656558 181.56613791 C380.2587535 195.42312335 380.26905294 209.28010727 380.27244067 223.13709795 C380.27266024 224.02268254 380.2728798 224.90826712 380.27310602 225.8206876 C380.2733243 226.70827625 380.27354258 227.5958649 380.27376747 228.51035017 C380.27421092 230.30865304 380.27465748 232.10695591 380.27510715 233.90525877 C380.27532858 234.7972609 380.27555 235.68926303 380.27577814 236.60829552 C380.27972039 251.03971641 380.29715902 265.47108663 380.32046667 279.90248797 C380.34425818 294.75466094 380.3566461 309.60680857 380.35780859 324.45900089 C380.35872112 332.78344907 380.36436583 341.10783125 380.3826282 349.43226111 C380.39813507 356.52519441 380.40308805 363.61804132 380.3948901 370.71098838 C380.3910203 374.32072458 380.39172983 377.93028738 380.40594745 381.54000151 C380.54502627 419.07962805 375.57387544 455.29737837 348.03487277 483.27610838 C320.71532135 509.09266929 283.72120005 512.59805405 247.95367992 512.55221677 C244.30184403 512.54972417 240.65003252 512.55879484 236.9982059 512.56625426 C229.86387176 512.57893432 222.72957538 512.58080331 215.59523187 512.578454 C209.78867694 512.5766629 203.98213336 512.57843734 198.17557979 512.58267844 C196.93068767 512.58357122 196.93068767 512.58357122 195.66064623 512.58448204 C193.97401713 512.58569394 192.28738803 512.58690807 190.60075893 512.58812442 C174.82060946 512.59897448 159.04048142 512.59684969 143.26033076 512.59073957 C128.86808683 512.58557443 114.47591066 512.59681977 100.08368013 512.61583779 C85.25843312 512.63527577 70.43321807 512.64346167 55.60795826 512.63971454 C47.30372563 512.63781128 38.99955062 512.64020381 30.69532847 512.65442908 C23.62449297 512.66642027 16.55375055 512.66766213 9.48291359 512.65563891 C5.88529194 512.64980352 2.28783987 512.64849973 -1.30976987 512.66064131 C-37.85545608 512.77532185 -73.03113256 508.19220825 -100.96512723 482.27610838 C-124.06846099 459.06856111 -132.13000603 426.66404304 -132.10556912 394.74978697 C-132.10854025 393.52282679 -132.11151137 392.29586661 -132.11457253 391.03172582 C-132.12170796 387.65157128 -132.12442832 384.27146762 -132.12516999 380.89130926 C-132.12703238 377.23528345 -132.13458568 373.5792684 -132.14130521 369.92324889 C-132.15484256 361.93921609 -132.16090639 353.95518835 -132.16531587 345.97114599 C-132.16808676 340.97612254 -132.17232568 335.98110101 -132.17682004 330.98607886 C-132.18900796 317.12909342 -132.19930739 303.2721095 -132.20269513 289.41511881 C-132.20302448 288.08674194 -132.20302448 288.08674194 -132.20336048 286.73152917 C-132.20357876 285.84394052 -132.20379704 284.95635187 -132.20402193 284.0418666 C-132.20446538 282.24356373 -132.20491194 280.44526086 -132.2053616 278.64695799 C-132.20558303 277.75495587 -132.20580446 276.86295374 -132.2060326 275.94392125 C-132.20997485 261.51250036 -132.22741348 247.08113014 -132.25072113 232.6497288 C-132.27451264 217.79755583 -132.28690056 202.9454082 -132.28806305 188.09321588 C-132.28897558 179.7687677 -132.29462029 171.44438552 -132.31288266 163.11995566 C-132.32838953 156.02702236 -132.33334251 148.93417545 -132.32514456 141.84122839 C-132.32127476 138.23149219 -132.32198428 134.62192938 -132.33620191 131.01221526 C-132.47252169 94.22194634 -127.82817869 58.63089614 -101.51200223 30.79954588 C-85.23253053 14.66988528 -64.23076908 6.36409074 -41.96512723 2.27610838 C-41.0686428 2.10609218 -40.17215837 1.93607598 -39.24850774 1.76090777 C-26.23988884 -0.32929195 -13.14057902 -0.01681482 0 0 Z M171.03487277 148.27610838 C165.50509976 155.23123229 161.33375286 162.93233963 157.22237277 170.77610838 C156.57762932 171.99420044 155.93226614 173.21196465 155.28633761 174.4294287 C153.91118509 177.02415537 152.54003912 179.62094172 151.1720798 182.21946776 C149.00742331 186.33081142 146.83257331 190.43670673 144.65596652 194.54173338 C141.63989868 200.23153159 138.62711415 205.92305286 135.61690402 211.61595213 C131.39935654 219.59100541 127.17312754 227.5614284 122.94130588 235.528916 C122.22684137 236.87413271 121.51252024 238.21942559 120.79836154 239.56480467 C116.24022469 248.15134822 111.65341231 256.72189477 107.03487277 265.27610838 C103.65453583 261.35064723 101.32017377 257.3170983 98.98799777 252.73704588 C98.21733962 251.25388193 97.44650034 249.77081208 96.67549777 248.28782713 C95.48348408 245.979398 94.29433454 243.66956434 93.10909152 241.35765135 C82.75898151 220.44132213 82.75898151 220.44132213 64.26924777 207.18626463 C53.70765868 203.9853361 43.4711405 204.42372479 33.54659152 209.56517088 C25.76329233 214.45753038 20.87383882 220.94103278 16.59737277 228.96360838 C15.97620578 230.1044287 15.97620578 230.1044287 15.34248996 231.26829588 C13.89655019 233.93225433 12.46511128 236.60368884 11.03487277 239.27610838 C9.87219375 241.43891256 8.70942878 243.60167053 7.54659152 245.76438963 C4.99158987 250.52317263 2.44278349 255.28521032 -0.10184598 260.04954588 C-3.7294563 266.84112405 -7.37512254 273.62288278 -11.02762723 280.40110838 C-11.60093778 281.46522948 -12.17424832 282.52935057 -12.76493192 283.62571776 C-13.92027999 285.76997097 -15.07571596 287.91417683 -16.23124051 290.05833495 C-19.14382988 295.46356275 -22.05436953 300.86989406 -24.96512723 306.27610838 C-26.13178419 308.44278028 -27.29845086 310.60944694 -28.46512723 312.77610838 C-29.04262723 313.84860838 -29.62012723 314.92110838 -30.21512723 316.02610838 C-35.46512723 325.77610838 -35.46512723 325.77610838 -37.21830106 329.03172362 C-38.37469945 331.17950534 -39.53079113 333.32745222 -40.68656278 335.47557127 C-43.42653003 340.56717922 -46.16968066 345.65699905 -48.92365384 350.74104369 C-49.90892745 352.56027211 -50.89323088 354.38002204 -51.8772366 356.19993651 C-53.12008448 358.49786388 -54.36480029 360.79478221 -55.6116116 363.09056151 C-56.16784207 364.11987792 -56.72407254 365.14919432 -57.29715848 366.20970213 C-57.78933866 367.1177661 -58.28151883 368.02583006 -58.78861356 368.96141112 C-60.0670869 371.33539793 -60.0670869 371.33539793 -60.96512723 374.27610838 C-53.34941928 374.34608353 -45.73374531 374.39915811 -38.1177876 374.4315449 C-34.5801304 374.44710082 -31.04269557 374.46815075 -27.50516629 374.50242674 C-23.42409177 374.54171501 -19.34324528 374.55590064 -15.26200223 374.56907713 C-13.38626523 374.59230292 -13.38626523 374.59230292 -11.47263455 374.61599791 C0.04570968 374.61817228 11.20531207 373.27111703 20.03487277 365.27610838 C28.98172292 355.78037172 34.24103156 342.79891419 40.03487277 331.27610838 C40.56709445 330.22004393 41.09931613 329.16397948 41.64766574 328.07591307 C44.79705959 321.81936046 47.92646786 315.55312271 51.03487277 309.27610838 C52.57875064 312.1916095 54.1195352 315.10873551 55.65987277 318.02610838 C56.2998923 319.23460448 56.2998923 319.23460448 56.95284152 320.46751463 C59.42582229 325.15510504 61.84255181 329.86635245 64.20821261 334.6091162 C64.74006167 335.67478819 65.27191073 336.74046019 65.81987643 337.83842528 C66.42129962 339.04507842 66.42129962 339.04507842 67.03487277 340.27610838 C75.18939998 340.36928427 83.34370028 340.44011206 91.49863029 340.48335707 C95.28637605 340.50412523 99.0737544 340.53224192 102.86128879 340.5778662 C106.5247535 340.6217137 110.18786754 340.64532622 113.85157466 340.65561736 C115.24087353 340.66293974 116.63015584 340.67723625 118.01930308 340.69902861 C129.32344771 340.86911552 139.22333569 339.39072858 148.21504855 332.08226073 C154.65381617 325.69186593 158.8495428 317.28417686 162.90987277 309.27610838 C163.47214572 308.18121092 164.03441867 307.08631346 164.61373019 305.95823729 C172.46243711 290.63140169 180.10037726 275.19461266 187.76680636 259.77610838 C188.30475329 258.6958438 188.84270022 257.61557921 189.39694858 256.50257933 C190.42218518 254.44350237 191.44579299 252.38361343 192.46759677 250.3228308 C193.15119014 248.95077986 193.15119014 248.95077986 193.84859347 247.55101073 C194.24826831 246.74642424 194.64794314 245.94183775 195.05972934 245.11286986 C196.03487277 243.27610838 196.03487277 243.27610838 197.03487277 242.27610838 C197.53301486 243.29333983 198.03115695 244.31057127 198.54439425 245.35862792 C200.43131232 249.20599188 202.32955766 253.04768035 204.23091769 256.88792479 C205.0454422 258.53683635 205.85706665 260.18718431 206.665488 261.83909667 C218.29413012 287.54661745 218.29413012 287.54661745 239.07744479 305.14178526 C246.5870931 307.63053007 253.71761121 307.66232394 261.57393527 307.56907713 C262.94969346 307.56346845 264.32545772 307.55920438 265.70122409 307.55621397 C269.28844442 307.54486505 272.87528912 307.51548649 276.462363 307.48210204 C280.13622085 307.45118383 283.81014054 307.43766261 287.48409152 307.42259276 C294.66785486 307.39060483 301.8513108 307.33953252 309.03487277 307.27610838 C307.65471208 303.77323599 306.15398531 300.43463247 304.41768527 297.09251463 C303.89964328 296.09437743 303.38160129 295.09624022 302.84786105 294.06785643 C302.29082492 293.00220458 301.73378879 291.93655272 301.15987277 290.83860838 C300.28758029 289.16568724 300.28758029 289.16568724 299.39766574 287.45896971 C295.24549465 279.52344663 291.00204826 271.64225271 286.6930759 263.79100096 C282.6349222 256.3943694 278.63802333 248.96602901 274.65987277 241.52610838 C273.38260412 239.13804738 272.10524706 236.75003367 270.82784152 234.36204588 C270.35334819 233.47494177 270.35334819 233.47494177 269.86926913 232.56991637 C264.86071939 223.20897591 259.81883998 213.86595381 254.78194308 204.52024901 C252.39573527 200.08929186 250.01473473 195.65554335 247.63350558 191.22190917 C245.8784732 187.95893071 244.11733829 184.69930821 242.35518527 181.44017088 C240.220173 177.48959648 238.11184853 173.5268294 236.02706027 169.54954588 C228.76764871 155.80798303 222.2448102 145.03294224 207.03487277 139.27610838 C194.21367398 136.08557965 180.59555098 138.941101 171.03487277 148.27610838 Z " fill="#BD9F5C" transform="translate(131.96512722969055,-0.27610838413238525)"/>
</svg>
