<?xml version="1.0" encoding="UTF-8"?>
<svg version="1.1" xmlns="http://www.w3.org/2000/svg" width="512" height="512">
<path d="M0 0 C3.64026515 0.00249023 7.28050574 -0.00657525 10.92076159 -0.01403749 C18.0345115 -0.02672444 25.14822355 -0.02858563 32.26198287 -0.02623723 C38.051876 -0.02444675 43.84175773 -0.02621928 49.63164949 -0.03046167 C50.4589377 -0.03105686 51.2862259 -0.03165205 52.13858344 -0.03226527 C53.81981708 -0.03347716 55.50105071 -0.0346913 57.18228434 -0.03590765 C72.91617079 -0.04676058 88.65003575 -0.04463168 104.3839234 -0.0385228 C118.73419857 -0.03335861 133.08440575 -0.04459997 147.43466748 -0.06362102 C162.21468236 -0.08305951 176.99466517 -0.09124474 191.77469289 -0.08749777 C200.05434827 -0.08559443 208.33394586 -0.08798772 216.61359072 -0.10221231 C223.66432175 -0.11420422 230.71495945 -0.11544466 237.76569195 -0.10342214 C241.35318049 -0.09758695 244.94049897 -0.09628232 248.52797556 -0.10842454 C282.0890107 -0.21408846 316.20461011 3.11656875 343.11941576 25.27610838 C343.74590014 25.75306151 344.37238451 26.23001463 345.01785326 26.72142088 C361.19705582 39.53300662 370.84783558 60.60756005 375.86941576 80.15110838 C376.06817308 80.91632811 376.26693041 81.68154784 376.47171068 82.46995604 C380.5263093 99.27577198 380.41760734 116.10478539 380.39552414 133.28741729 C380.39303145 136.92900904 380.40210229 140.57057635 380.40956163 144.2121588 C380.42224105 151.3261045 380.4241108 158.44001234 380.42176137 165.55396745 C380.41997034 171.34336851 380.42174458 177.13275818 380.42598581 182.92215788 C380.426581 183.74959932 380.42717619 184.57704076 380.42778942 185.42955618 C380.42900131 187.11111401 380.43021544 188.79267184 380.43143179 190.47422966 C380.44228142 206.20618266 380.44015716 221.93811416 380.43404695 237.67006835 C380.42888082 252.0209555 380.44012982 266.3717747 380.45914517 280.72264841 C380.47857856 295.50382013 380.48676991 310.28495979 380.48302191 325.06614435 C380.4811181 333.34631188 380.48351681 341.62642164 380.49773645 349.90657866 C380.5097217 356.95621612 380.51097595 364.00576023 380.49894629 371.05539915 C380.49310706 374.64277075 380.4918182 378.22997222 380.50394869 381.81733191 C380.61975279 418.63074824 375.65305967 454.34354703 348.99441576 481.90110838 C326.19355139 504.57899433 292.8231771 512.4525549 261.59068346 512.40982115 C259.75001843 512.41321949 259.75001843 512.41321949 257.87216824 512.41668648 C254.4918295 512.42189505 251.11154425 512.42267594 247.73120534 512.4214921 C244.07529616 512.42128701 240.41939475 512.42681717 236.76348925 512.43154967 C229.6103014 512.43983349 222.45712179 512.44260348 215.30392954 512.44316205 C209.48526421 512.4436383 203.66660158 512.44569852 197.84793711 512.44886267 C181.32640611 512.45766321 164.8048816 512.46228301 148.28334824 512.4615322 C147.39385746 512.46149224 146.50436667 512.46145229 145.58792162 512.46141112 C144.69733624 512.46137024 143.80675087 512.46132936 142.88917806 512.46128724 C128.46341575 512.46088098 114.03767956 512.47044693 99.6119248 512.48454949 C84.77560112 512.49893818 69.93929017 512.50581829 55.10295933 512.50495571 C46.78319058 512.50462459 38.46344921 512.50733421 30.14368677 512.51813376 C23.05901146 512.52727165 15.97437596 512.52938716 8.88969729 512.52262434 C5.28074177 512.5193756 1.67186248 512.51924231 -1.93708563 512.52797759 C-29.66361324 512.59093719 -29.66361324 512.59093719 -41.88058424 510.27610838 C-42.68738725 510.131261 -43.49419025 509.98641362 -44.32544184 509.83717692 C-71.83492423 504.52241179 -96.52721945 491.59442824 -112.67404127 468.13548338 C-126.79626868 446.37205077 -132.04069284 420.38387803 -132.02102613 394.78775084 C-132.02399726 393.56487421 -132.02696838 392.34199759 -132.03002954 391.08206409 C-132.03716472 387.71331107 -132.03988531 384.3446091 -132.040627 380.97585225 C-132.04248945 377.33209647 -132.05004278 373.68835149 -132.05676222 370.04460204 C-132.07029932 362.08742789 -132.07636336 354.13025882 -132.08077288 346.17307508 C-132.08354381 341.1948026 -132.08778275 336.21653204 -132.09227705 331.23826087 C-132.10446495 317.42759857 -132.11476438 303.6169378 -132.11815214 289.80627024 C-132.11837171 288.92365327 -132.11859127 288.0410363 -132.11881749 287.13167335 C-132.11903577 286.24705966 -132.11925405 285.36244596 -132.11947894 284.45102578 C-132.11992239 282.65875188 -132.12036895 280.86647799 -132.12081861 279.07420409 C-132.12104004 278.18519258 -132.12126147 277.29618106 -132.12148961 276.38022981 C-132.12543183 261.99730779 -132.14287038 247.61443661 -132.16617814 233.23153421 C-132.18997006 218.42908178 -132.20235759 203.62665477 -132.20352006 188.82418293 C-132.20443256 180.52768033 -132.21007671 172.23124395 -132.22833967 163.93475974 C-132.2438471 156.86561492 -132.2487992 149.7965568 -132.24060157 142.72739818 C-132.23673196 139.12981336 -132.23744032 135.53240251 -132.25165892 131.93483984 C-132.3828721 96.64420996 -128.03705845 59.21427706 -102.79464674 32.12767088 C-85.69670872 15.58803289 -65.10199405 6.44276715 -41.88058424 2.27610838 C-40.98530075 2.10722515 -40.09001726 1.93834191 -39.16760397 1.764341 C-26.18471427 -0.32345708 -13.11494836 -0.01683971 0 0 Z M178.49441576 133.21360838 C173.81301857 138.23635745 170.57255344 143.83880931 167.39090014 149.87034667 C165.91670367 152.65965773 164.41694545 155.4345367 162.91629076 158.20970213 C154.41195669 173.97380529 146.0564583 189.81782121 137.68191576 205.65110838 C115.45352119 247.67711196 115.45352119 247.67711196 104.11941576 268.27610838 C97.43892164 256.64378744 90.90681165 244.97469321 84.80691576 233.02610838 C77.58746798 219.00686661 69.90984599 205.54903482 54.11941576 200.27610838 C41.81403613 197.15259635 29.92330417 198.99162063 18.93191576 205.02610838 C10.49278058 211.77741653 5.52032096 219.16570064 0.52273607 228.62278807 C-1.06888987 231.63214624 -2.68096912 234.63008063 -4.29464674 237.62767088 C-6.86479715 242.40747429 -9.42696311 247.19141505 -11.98214674 251.97923338 C-15.62018057 258.79495132 -19.27786867 265.59996519 -22.94308424 272.40110838 C-23.51631422 273.46506835 -24.0895442 274.52902831 -24.68014479 275.62522948 C-25.83556936 277.76964808 -26.99108668 279.91401672 -28.14669752 282.05833495 C-31.05928689 287.46356275 -33.96982654 292.86989406 -36.88058424 298.27610838 C-38.0472412 300.44278028 -39.21390787 302.60944694 -40.38058424 304.77610838 C-40.95808424 305.84860838 -41.53558424 306.92110838 -42.13058424 308.02610838 C-61.38058424 343.77610838 -61.38058424 343.77610838 -63.13400221 347.0322119 C-64.28954794 349.17838693 -65.4448256 351.32470632 -66.59982252 353.47117674 C-69.34982743 358.58105149 -72.10270562 363.6893226 -74.8648982 368.79261839 C-76.17943999 371.22169068 -77.49247604 373.6515753 -78.80538893 376.08152831 C-79.740437 377.81059845 -80.67768031 379.53848088 -81.61495924 381.26634276 C-82.45413893 382.81998534 -82.45413893 382.81998534 -83.31027174 384.40501463 C-83.80768873 385.32355223 -84.30510572 386.24208983 -84.81759596 387.1884619 C-85.95620861 389.03418132 -85.95620861 389.03418132 -85.88058424 390.27610838 C-78.03860193 390.32281648 -70.1966533 390.3581703 -62.3545661 390.37973273 C-58.71165824 390.3900909 -55.06884679 390.40410091 -51.4259944 390.42698729 C-47.89870357 390.44900444 -44.37150441 390.46073657 -40.84415007 390.46586287 C-38.86927465 390.47125965 -36.89443519 390.48682404 -34.91961622 390.5027014 C-19.35032684 390.50459777 -4.704193 389.28133571 7.11941576 378.27610838 C12.6887203 371.37529569 16.75436363 363.6553373 20.74441576 355.77610838 C21.33690111 354.62006102 21.92938646 353.46401366 22.53982592 352.27293456 C28.8276802 339.98890473 34.98814968 327.63882462 41.11941576 315.27610838 C41.3752141 315.76264891 41.63101244 316.24918944 41.89456224 316.75047362 C43.11510208 319.07164728 44.33601087 321.39262671 45.55691576 323.71360838 C46.15923021 324.85926268 46.15923021 324.85926268 46.77371264 326.02806151 C51.20595816 334.4527114 55.66336611 342.86403393 60.11941576 351.27610838 C69.15207699 351.36933376 78.18456924 351.44013703 87.21760893 351.48335707 C91.41332387 351.50411445 95.60870647 351.53221126 99.80423021 351.5778662 C103.86321577 351.62175224 107.92188437 351.64533425 111.98108912 351.65561736 C113.51944824 351.66293291 115.05779264 351.67721529 116.5960145 351.69902861 C128.96227003 351.86720618 141.27130442 350.91170226 151.03419542 342.46586668 C160.69305735 332.32277882 166.46034638 319.21360401 172.55300951 306.79173338 C173.52078444 304.83920085 174.48964036 302.88720378 175.45951891 300.93571532 C177.98742949 295.84411526 180.50422938 290.74711677 183.01754808 285.64830077 C187.06183146 277.4455621 191.11819279 269.24884123 195.18409967 261.05680144 C196.59993313 258.19818266 198.00785987 255.33576578 199.41517687 252.47294676 C200.27519489 250.73563697 201.13549506 248.99846681 201.99612474 247.26145995 C202.38622728 246.46261382 202.77632982 245.66376769 203.17825365 244.8407141 C205.89201386 239.38980933 205.89201386 239.38980933 208.11941576 238.27610838 C208.35716722 239.07395751 208.59491869 239.87180663 208.83987474 240.69383299 C210.43920797 245.17141673 212.47847639 249.33838717 214.59207201 253.59251463 C215.25498499 254.9318833 215.25498499 254.9318833 215.93129015 256.29830992 C216.86803761 258.18628061 217.80701666 260.0731455 218.74807787 261.95896971 C220.16268362 264.79998364 221.5621739 267.64810686 222.96121264 270.49681151 C235.49230879 296.17058222 235.49230879 296.17058222 258.11941576 312.27610838 C262.19115137 313.290502 266.01562196 313.39707427 270.20462084 313.38963377 C270.89785448 313.3897798 271.59108812 313.38992583 272.30532885 313.39007628 C274.58323405 313.3893829 276.86105619 313.38161753 279.13894701 313.37376463 C280.72363792 313.37189841 282.30832941 313.37047547 283.89302111 313.36947691 C288.05391086 313.36566782 292.21476544 313.3558513 296.37564135 313.34477293 C300.62551444 313.33452421 304.87539324 313.32997189 309.12527514 313.32493651 C317.45667145 313.31422755 325.78803922 313.29717049 334.11941576 313.27610838 C333.57907701 312.26476332 333.03873827 311.25341826 332.48202562 310.21142638 C331.76120338 308.86133292 331.04039951 307.51122965 330.31961107 306.16111815 C329.96488726 305.49730383 329.61016344 304.83348952 329.24469042 304.14955962 C326.06782635 298.19744495 322.96376762 292.20897661 319.86941576 286.21360838 C315.27526781 277.34640885 310.58123789 268.54301644 305.77615404 259.78855956 C301.71871742 252.39261708 297.72211936 244.96519311 293.74441576 237.52610838 C292.46714711 235.13804738 291.18979005 232.75003367 289.91238451 230.36204588 C289.43789118 229.47494177 289.43789118 229.47494177 288.95381212 228.56991637 C285.66570213 222.4244644 282.36268393 216.28707482 279.05691576 210.15110838 C278.48344408 209.08666502 277.9099724 208.02222167 277.31912279 206.92552245 C276.16392771 204.78160002 275.00865446 202.63771971 273.85330248 200.49388182 C271.52452663 196.17210406 269.19697657 191.84966736 266.87014818 187.52684081 C265.70863824 185.37016741 264.5460509 183.21407389 263.38235521 181.05857909 C260.36598334 175.46823655 257.37122249 169.86773555 254.40847826 164.24876463 C253.79488451 163.09183104 253.18129076 161.93489745 252.54910326 160.74290526 C251.38861838 158.55380878 250.23443832 156.36135208 249.08816576 154.16478026 C242.11960673 141.06085948 234.3497084 129.21029891 219.84988451 123.99485838 C204.97433071 120.0791189 189.91572576 122.69192212 178.49441576 133.21360838 Z " fill="#BD9F5C" transform="translate(131.88058423995972,-0.27610838413238525)"/>
<path d="M0 0 C0.66 0.33 1.32 0.66 2 1 C-3.61 6.61 -9.22 12.22 -15 18 C-15 13.07254925 -11.31913617 10.39978807 -8 7 C-5.39491779 4.58973264 -2.72918126 2.2684104 0 0 Z " fill="#5B4E35" transform="translate(39,23)"/>
</svg>
